STARTFONT 2.3
FONT -FontForge-Hanalei-Book-R-Normal--20-200-72-72-P-101-ISO10646-1
SIZE 20 72 72  4
FONTBOUNDINGBOX 26 27 -1 -6
COMMENT "Generated by fontforge, http://fontforge.sourceforge.net"
COMMENT "Copyright (c) 2012 by Brian J. Bonislawsky DBA Astigmatic (AOETI) (astigma@astigmatic.com), with ReservedFont Name "Hanalei""
STARTPROPERTIES 40
FOUNDRY "FontForge"
FAMILY_NAME "Hanalei"
WEIGHT_NAME "Book"
SLANT "R"
SETWIDTH_NAME "Normal"
ADD_STYLE_NAME ""
PIXEL_SIZE 20
POINT_SIZE 200
RESOLUTION_X 72
RESOLUTION_Y 72
SPACING "P"
AVERAGE_WIDTH 101
CHARSET_REGISTRY "ISO10646"
CHARSET_ENCODING "1"
FONTNAME_REGISTRY ""
CHARSET_COLLECTIONS "ISO8859-2 ISO8859-9 ISO8859-4 ISO10646-1"
BITS_PER_PIXEL 4
FONT_NAME "Hanalei-Regular"
FACE_NAME "Hanalei"
COPYRIGHT "Copyright (c) 2012 by Brian J. Bonislawsky DBA Astigmatic (AOETI) (astigma@astigmatic.com), with ReservedFont Name "Hanalei""
FONT_VERSION "1.000"
FONT_ASCENT 16
FONT_DESCENT 4
UNDERLINE_POSITION -3
UNDERLINE_THICKNESS 1
X_HEIGHT 13
CAP_HEIGHT 13
RAW_ASCENT 799
RAW_DESCENT 200
NORM_SPACE 4
RELATIVE_WEIGHT 40
RELATIVE_SETWIDTH 50
SUPERSCRIPT_X 0
SUPERSCRIPT_Y 9
SUPERSCRIPT_SIZE 12
SUBSCRIPT_X 0
SUBSCRIPT_Y 2
SUBSCRIPT_SIZE 12
AVG_LOWERCASE_WIDTH 107
AVG_UPPERCASE_WIDTH 105
ENDPROPERTIES
CHARS 366
STARTCHAR space
ENCODING 32
SWIDTH 200 0
DWIDTH 4 0
BBX 1 1 0 0
BITMAP
00
ENDCHAR
STARTCHAR exclam
ENCODING 33
SWIDTH 257 0
DWIDTH 5 0
BBX 5 15 0 -1
BITMAP
177720
340070
070340
070430
171440
3A6550
160520
080710
170610
283820
014100
187700
170600
083800
014100
ENDCHAR
STARTCHAR quotedbl
ENCODING 34
SWIDTH 476 0
DWIDTH 10 0
BBX 9 9 0 6
BITMAP
0776037730
4405380080
1607070070
3736173270
5736394370
3406170070
3405270070
5305580090
0675027720
ENDCHAR
STARTCHAR numbersign
ENCODING 35
SWIDTH 1076 0
DWIDTH 22 0
BBX 21 15 0 -1
BITMAP
0888930287832877987830
0800880350357100432380
0800780170627000367490
08017362606289797A1070
1B74968597646106033060
0700804830526106052060
0802800B5071700A9A7890
0801C20560618556431090
0B63886596547320420070
08027A1071632977777840
0702526027700174213000
0702508006A00813554700
3500706108730700000700
18685028C9810576667500
0010000001000000000000
ENDCHAR
STARTCHAR dollar
ENCODING 36
SWIDTH 453 0
DWIDTH 9 0
BBX 9 19 0 -3
BITMAP
0005760000
0017034000
0007052000
0007188910
003BB30160
5740520270
7000168520
4628C50000
5770892000
1773406820
0028300260
0003C60750
1776848470
7100334760
61027A3000
0979160000
0026060000
0026071000
0004740000
ENDCHAR
STARTCHAR percent
ENCODING 37
SWIDTH 889 0
DWIDTH 18 0
BBX 18 14 0 0
BITMAP
066556000430000000
386105703436000000
504667604115000000
415050506051000000
505050509260000000
556580525370000000
670062733065655610
05556A260348630191
000000094534085753
000000061815243241
000000150714243241
000000511526668132
00000070253A005343
000000156103655960
ENDCHAR
STARTCHAR ampersand
ENCODING 38
SWIDTH 627 0
DWIDTH 13 0
BBX 13 16 0 -1
BITMAP
00057322000000
002C854B777000
00911507638000
0080086827A000
00250476017000
00072580080000
00077052710000
00587019500000
01706206300100
07106745878820
72056B40710060
801A9370261370
A8916070078410
70015794044000
55863219760000
03000000000000
ENDCHAR
STARTCHAR quotesingle
ENCODING 39
SWIDTH 246 0
DWIDTH 5 0
BBX 5 9 0 6
BITMAP
077600
440530
160700
373610
573630
340610
340520
530550
067500
ENDCHAR
STARTCHAR parenleft
ENCODING 40
SWIDTH 387 0
DWIDTH 8 0
BBX 9 18 -1 -2
BITMAP
0000021000
0000568500
0000700900
0004404500
002C208000
0071654000
0170080000
0810620000
3600800000
0B66B10000
0473180000
0062147000
0009817100
0006401800
0000810270
0000180080
0000077920
0000001000
ENDCHAR
STARTCHAR parenright
ENCODING 41
SWIDTH 386 0
DWIDTH 8 0
BBX 9 18 -1 -2
BITMAP
0001200000
0077810000
0260160000
0081071000
001705C000
0007444400
0002700800
0000630360
0000080080
00003C4780
0001803820
0008405300
0045288000
0180073000
1810440000
1800800000
0588300000
0001000000
ENDCHAR
STARTCHAR asterisk
ENCODING 42
SWIDTH 517 0
DWIDTH 10 0
BBX 10 10 0 5
BITMAP
0000450000
0001726000
0200733010
4773864677
7207438107
1578005773
0018647400
0081871720
0444407080
0067005710
ENDCHAR
STARTCHAR plus
ENCODING 43
SWIDTH 458 0
DWIDTH 9 0
BBX 9 9 0 2
BITMAP
0005771000
0007016000
0538554410
5344676470
7000330070
5556667570
0427371300
0007052000
0005870000
ENDCHAR
STARTCHAR comma
ENCODING 44
SWIDTH 228 0
DWIDTH 5 0
BBX 6 6 -1 -3
BITMAP
004830
007081
071072
620530
431700
067100
ENDCHAR
STARTCHAR hyphen
ENCODING 45
SWIDTH 465 0
DWIDTH 9 0
BBX 9 5 0 4
BITMAP
0654642510
5323465380
7000240070
3767777670
0310110100
ENDCHAR
STARTCHAR period
ENCODING 46
SWIDTH 202 0
DWIDTH 4 0
BBX 4 4 0 -1
BITMAP
4774
6106
6446
0330
ENDCHAR
STARTCHAR slash
ENCODING 47
SWIDTH 453 0
DWIDTH 9 0
BBX 9 14 0 0
BITMAP
0000068500
0000070460
0000340360
0000800800
0006962600
0007027200
0017017000
0071071000
00A7370000
0430470000
0800800000
6302600000
6306200000
0588000000
ENDCHAR
STARTCHAR zero
ENCODING 48
SWIDTH 646 0
DWIDTH 13 0
BBX 15 16 -1 -1
BITMAP
0000047200000000
0000081981000000
0000530287000000
0004501805500000
001A826800550000
0072047266471000
0360080085018000
1878710007102810
0B11900005900710
0910173096366700
02820587463A3000
0007826600640000
0001A84006300000
0000091054000000
0000018670000000
0000000100000000
ENDCHAR
STARTCHAR one
ENCODING 49
SWIDTH 400 0
DWIDTH 8 0
BBX 9 15 -1 -1
BITMAP
00008C7710
0028450360
0760170520
2500760610
0817786530
0163541530
0000350610
0000250710
0000463530
0000564640
0000340700
0000440700
0000710620
0000653830
0000034100
ENDCHAR
STARTCHAR two
ENCODING 50
SWIDTH 502 0
DWIDTH 10 0
BBX 10 15 0 -1
BITMAP
0005775000
0036086300
0460081810
6400960082
8007164008
298300B167
0010292748
0003A50281
0028053800
0570028100
08003A1240
4A21986563
7168160026
3877677783
0210220120
ENDCHAR
STARTCHAR three
ENCODING 51
SWIDTH 456 0
DWIDTH 9 0
BBX 9 15 0 -1
BITMAP
0875322000
4301459100
5300006910
1877868270
000A723810
0082348000
08277A2000
0844037000
02B5002940
00049588A0
1368A30080
7520700280
8000477520
4667620000
0320000000
ENDCHAR
STARTCHAR four
ENCODING 52
SWIDTH 514 0
DWIDTH 10 0
BBX 11 15 -1 -1
BITMAP
000005787600
000016080620
000071062800
000630540800
002882D66700
007007A11700
053046943A30
260084664180
091520340070
017B67777960
000210710700
000000700700
000000800700
000000843900
000000044100
ENDCHAR
STARTCHAR five
ENCODING 53
SWIDTH 500 0
DWIDTH 10 0
BBX 10 14 0 0
BITMAP
0586787780
2607170062
0607050161
0708776660
1507000000
4979797750
19000737B1
0712047007
0265779015
0000006025
1766858646
6112633287
7000510082
3877777780
ENDCHAR
STARTCHAR six
ENCODING 54
SWIDTH 520 0
DWIDTH 10 0
BBX 12 15 -1 -1
BITMAP
000297700000
000430450000
000610800000
000800700000
003A73700000
004403B20000
006207077000
008007008800
01B73A544284
025037488307
053075750982
080083000640
180070047700
0588A1840000
000037000000
ENDCHAR
STARTCHAR seven
ENCODING 55
SWIDTH 423 0
DWIDTH 8 0
BBX 9 15 0 -1
BITMAP
5778877800
7000710440
7000600370
7777987B30
0000910800
0002964700
0004404400
0008008000
001B507000
0034257000
0071081000
0180070000
0620250000
0196830000
0001100000
ENDCHAR
STARTCHAR eight
ENCODING 56
SWIDTH 527 0
DWIDTH 11 0
BBX 11 15 0 -1
BITMAP
067679668400
250117110800
450114298900
5B77B7A10800
062055702600
007459107000
007603534000
006A10590000
007170380000
052099525000
260358107200
800877700810
742600A10840
06B677899D10
003200100100
ENDCHAR
STARTCHAR nine
ENCODING 57
SWIDTH 500 0
DWIDTH 10 0
BBX 11 15 0 -1
BITMAP
000003861000
0159A5078700
863070043720
700035871800
91497C406200
873458557000
281064026000
008170080000
0009A1170000
000716640000
000800900000
007205300000
008008000000
006648000000
000141000000
ENDCHAR
STARTCHAR colon
ENCODING 58
SWIDTH 245 0
DWIDTH 5 0
BBX 4 12 0 -1
BITMAP
0251
1829
0706
0777
0000
0000
0000
0000
1877
0706
0938
0141
ENDCHAR
STARTCHAR semicolon
ENCODING 59
SWIDTH 270 0
DWIDTH 5 0
BBX 6 14 -1 -3
BITMAP
000440
007337
006116
003773
000000
000000
000000
000000
001850
006054
044036
260270
170700
037400
ENDCHAR
STARTCHAR less
ENCODING 60
SWIDTH 445 0
DWIDTH 9 0
BBX 9 12 0 1
BITMAP
0000005000
0000184900
0008910530
0382702830
6500256000
6202850000
5A59720000
70302B4000
2771715820
0018500430
0000382900
0000007100
ENDCHAR
STARTCHAR equal
ENCODING 61
SWIDTH 484 0
DWIDTH 10 0
BBX 9 10 0 2
BITMAP
0554652430
2623285380
4300060070
1867777680
0220110110
0554652430
2623285380
4300060070
1867777680
0220110110
ENDCHAR
STARTCHAR greater
ENCODING 62
SWIDTH 445 0
DWIDTH 9 0
BBX 9 12 0 1
BITMAP
0040000000
0948100000
4401970000
4821738300
0075100650
0005810350
0003795A40
004B103160
3842617720
5300581000
1928300000
0160000000
ENDCHAR
STARTCHAR question
ENCODING 63
SWIDTH 455 0
DWIDTH 9 0
BBX 9 15 0 -1
BITMAP
1986200000
62026B5100
7000253670
2876400070
0002C86680
0046102960
02B1037200
0358660000
0240800000
0463900000
0025100000
0477500000
0610700000
0553600000
0033000000
ENDCHAR
STARTCHAR at
ENCODING 64
SWIDTH 812 0
DWIDTH 16 0
BBX 16 17 0 -2
BITMAP
0056345235213000
045133843858C600
0961214114080600
076A577667790500
0707275585753450
0B67421050376160
0707275885666060
0707321542057672
0707515023147133
1A686876876A6406
0707840060063407
07071866643427A3
2509650032265660
2758076710000000
0296240330000000
0000456700000000
0000000100000000
ENDCHAR
STARTCHAR A
ENCODING 65
SWIDTH 507 0
DWIDTH 10 0
BBX 11 14 0 0
BITMAP
003887000000
006206920000
007008160000
008007070000
04A736080000
043048673000
06107A134000
080076119700
0B73AB873440
260373400070
440611447840
800877B30700
800700610810
587700488600
ENDCHAR
STARTCHAR B
ENCODING 66
SWIDTH 533 0
DWIDTH 11 0
BBX 11 16 0 -1
BITMAP
005840000000
098047710000
0A4000877310
088740701470
080298620170
2B7373977A20
1702CA002A10
080344256100
080352876000
1B74B8102920
170277910720
0805AB385950
1C7615218830
5B0001683000
2C2177400000
007810000000
ENDCHAR
STARTCHAR C
ENCODING 67
SWIDTH 515 0
DWIDTH 10 0
BBX 11 16 0 -1
BITMAP
002000000000
037778A65600
070000712620
062111400530
0496A7777900
097570000100
070080000000
070070000000
080170000000
2A7470000000
160340000100
440769877800
800724300440
586912413620
093677865500
016200000000
ENDCHAR
STARTCHAR D
ENCODING 68
SWIDTH 520 0
DWIDTH 10 0
BBX 11 16 0 -1
BITMAP
000460000000
08C435000000
088006500000
087400580000
080560395000
2B74C5506500
160266600460
080340360350
070340498860
1B7378500650
1702D6707300
070460264000
170440650000
430166400000
287976000000
001250000000
ENDCHAR
STARTCHAR E
ENCODING 69
SWIDTH 490 0
DWIDTH 10 0
BBX 10 15 0 -1
BITMAP
08788A7784
0800752007
0802531107
0802A77773
2B73700000
1602A67400
0803410700
0703400700
1B73B78600
1702600000
07049B7781
1704470026
4301640026
2878777781
0010000000
ENDCHAR
STARTCHAR F
ENCODING 70
SWIDTH 475 0
DWIDTH 10 0
BBX 10 15 0 -1
BITMAP
08788A7784
0800752007
0802531107
0802A77773
2B73700000
1602A67400
0803410700
0703400700
1B73B78600
1702600000
0704400000
1704400000
4301600000
2878400000
0010000000
ENDCHAR
STARTCHAR G
ENCODING 71
SWIDTH 557 0
DWIDTH 11 0
BBX 11 16 0 -1
BITMAP
002000000000
037778A65600
070000712620
062111400530
0496A7777900
097570000100
070080003200
070070094560
080170070150
2A7470070160
1603400A7480
440769790070
800724370070
586912470080
093677887760
016200000000
ENDCHAR
STARTCHAR H
ENCODING 72
SWIDTH 611 0
DWIDTH 12 0
BBX 13 15 0 0
BITMAP
00000000110000
08785007768100
08007008006100
08025007107000
08025007107000
2B737009768000
17026008008000
0803400700B500
08035009972710
1B74C862700520
17026600457900
07044679727000
1704A607008000
53017008008000
28783006786000
ENDCHAR
STARTCHAR I
ENCODING 73
SWIDTH 266 0
DWIDTH 5 0
BBX 5 14 0 0
BITMAP
087850
080070
080250
080250
2B7370
170260
080340
080340
1B7470
170260
070430
170440
530170
287830
ENDCHAR
STARTCHAR J
ENCODING 74
SWIDTH 484 0
DWIDTH 10 0
BBX 10 15 -1 -1
BITMAP
0000005888
0000007007
0000006207
0000007107
000000A767
0000008008
0032007007
0858008007
4402709758
1820388018
008464C008
003A007508
0004600808
0000622C77
0000187100
ENDCHAR
STARTCHAR K
ENCODING 75
SWIDTH 541 0
DWIDTH 11 0
BBX 12 15 0 -1
BITMAP
087850007500
080070053370
080250370081
080255900650
2B7388564500
1602C1039000
0803401B1000
070380972000
1B73A7418000
1702BC577100
070474702600
170440800810
430160520450
287840286700
001000011000
ENDCHAR
STARTCHAR L
ENCODING 76
SWIDTH 467 0
DWIDTH 9 0
BBX 10 14 0 0
BITMAP
0878500000
0800700000
0802500000
0802500000
2B73700000
1702600000
0803400000
0803400000
1B74700000
1702600000
0704A87673
1704560007
5301840007
2878987784
ENDCHAR
STARTCHAR M
ENCODING 77
SWIDTH 733 0
DWIDTH 15 0
BBX 15 15 0 -1
BITMAP
0077840029781000
00800A1043037000
0080286061078000
0350527070077000
08767183A7377000
0700756830486400
0700C21D10922600
0700B40900C21700
2B72770773A40800
34045963747A6800
5207071078170610
8007035078070430
8007007019070080
6887008781087870
0000000000001000
ENDCHAR
STARTCHAR N
ENCODING 78
SWIDTH 598 0
DWIDTH 12 0
BBX 12 15 0 -1
BITMAP
088892028782
080087043043
080258025071
080254534070
2B74A5878762
160170681071
0803701B3070
0803C1055080
1A639774A662
17036B108171
070444503570
170440800790
440160700871
28684038D881
001000000000
ENDCHAR
STARTCHAR O
ENCODING 79
SWIDTH 612 0
DWIDTH 12 0
BBX 12 16 0 -1
BITMAP
002000000000
037778A67940
0700007126A0
0621114005A0
0496A7788970
097570067772
070080074062
070070025061
080170007044
2A747001A647
160340009217
440758979696
800720700078
586910602389
094687776A82
016200000000
ENDCHAR
STARTCHAR P
ENCODING 80
SWIDTH 513 0
DWIDTH 10 0
BBX 11 16 0 -1
BITMAP
003810000000
079177500000
0A4000884000
089510704750
0804A7400070
1B73617A5720
260276704820
0803B9106600
080341572000
194261720000
283496000000
070470000000
170430000000
440250000000
474750000000
013100000000
ENDCHAR
STARTCHAR Q
ENCODING 81
SWIDTH 612 0
DWIDTH 12 0
BBX 12 18 0 -3
BITMAP
002000000000
037778A67940
0700007126A0
0621114005A0
0496A7788970
097570067772
070080074062
070070025061
080170007044
2A747001A647
160340009217
440758979696
800720700078
586910602389
0946887A6A82
016262070000
000070062000
000037760000
ENDCHAR
STARTCHAR R
ENCODING 82
SWIDTH 532 0
DWIDTH 11 0
BBX 11 16 0 -1
BITMAP
002600000000
069286300000
0B4001A82000
098300716840
0816A6300070
1952638A3630
282275715920
0703BA755710
080477083000
182296026000
29549A237200
070491B31700
170430720530
340250070080
462560074730
036300013100
ENDCHAR
STARTCHAR S
ENCODING 83
SWIDTH 442 0
DWIDTH 9 0
BBX 9 16 0 -1
BITMAP
0000001400
0777B77550
4A75610080
7207347760
6305A40000
0800710000
0367360000
00B0080000
0036018000
0007166300
0002B10800
1338B30550
8442680080
7000684840
7477765400
0400000000
ENDCHAR
STARTCHAR T
ENCODING 84
SWIDTH 453 0
DWIDTH 9 0
BBX 11 16 -1 -1
BITMAP
010000000000
08777B777900
260005200520
171334343710
0464A6854400
000171240000
000496460000
000160430000
000070520000
000272350000
000385560000
000160530000
000250520000
000620350000
000386830000
000001000000
ENDCHAR
STARTCHAR U
ENCODING 85
SWIDTH 583 0
DWIDTH 12 0
BBX 12 15 0 -1
BITMAP
058770187850
071071170170
071070070260
070080070170
0B75800B7480
070070080080
070250080080
070350080080
396460096680
250430083380
440769785880
8007371004A0
753913224963
09567778A981
017300000000
ENDCHAR
STARTCHAR V
ENCODING 86
SWIDTH 506 0
DWIDTH 10 0
BBX 10 15 0 -1
BITMAP
1672000330
9218004658
8008005207
5207007007
352451B635
2B51734163
0700753070
0610880070
03413C7370
01B6360350
0080430700
0061800700
0043800700
00467B8400
0004510000
ENDCHAR
STARTCHAR W
ENCODING 87
SWIDTH 735 0
DWIDTH 15 0
BBX 15 15 0 -1
BITMAP
1672000000077500
9218005770260460
8007036061340530
6108068043620700
44255BB017B62700
3A42777857813800
0700772506702600
0710840703605200
043187687B516100
02A6800A37367100
0080702677008000
0072604378017000
00582042A4025000
0046A98138355000
0004510001530000
ENDCHAR
STARTCHAR X
ENCODING 88
SWIDTH 483 0
DWIDTH 10 0
BBX 10 14 0 0
BITMAP
0373004510
5618008391
8106253036
1800970180
0522B70710
00B8515800
0079007200
004403A200
00A8195800
0621570710
1700960170
8006271045
8008016036
2885007760
ENDCHAR
STARTCHAR Y
ENCODING 89
SWIDTH 484 0
DWIDTH 10 0
BBX 12 14 -1 0
BITMAP
017400028710
181810061191
630270070081
072036440440
008266B82700
005903503700
000727107100
000087007000
000077643000
000080181000
000440350000
001800800000
001900700000
000288400000
ENDCHAR
STARTCHAR Z
ENCODING 90
SWIDTH 458 0
DWIDTH 9 0
BBX 11 14 -1 0
BITMAP
00777A778200
016005201900
017004122C20
00677A759800
00002C508000
000061347000
000180081000
000810630000
003981800000
008016500000
05501C778100
270086101600
091074101600
019A87778100
ENDCHAR
STARTCHAR bracketleft
ENCODING 91
SWIDTH 420 0
DWIDTH 8 0
BBX 9 18 0 -2
BITMAP
0000004200
0056664800
0897100520
2502757800
0704710000
1705200000
4964400000
5514400000
2606200000
2606100000
3624400000
4746400000
2506100000
3407101100
6205866900
6537300520
02B8666800
0000000100
ENDCHAR
STARTCHAR backslash
ENCODING 92
SWIDTH 453 0
DWIDTH 9 0
BBX 9 14 0 0
BITMAP
0476000000
5507000000
6404400000
0900800000
0536870000
0182070000
0072071000
0017017000
000827A100
0006402500
0000800800
0000530270
0000160370
0000078600
ENDCHAR
STARTCHAR bracketright
ENCODING 93
SWIDTH 420 0
DWIDTH 8 0
BBX 8 18 0 -2
BITMAP
05100000
73666610
700068A3
66637007
00048016
00007016
00007569
00007119
00007007
00007007
00007138
00008548
00007007
01008007
76669007
80009339
76667B60
01000000
ENDCHAR
STARTCHAR asciicircum
ENCODING 94
SWIDTH 353 0
DWIDTH 7 0
BBX 7 5 0 8
BITMAP
0088A000
0341B400
180A0810
71554170
28707730
ENDCHAR
STARTCHAR underscore
ENCODING 95
SWIDTH 499 0
DWIDTH 10 0
BBX 10 5 0 -6
BITMAP
0464563430
1713295480
2600070061
0857777790
0120010110
ENDCHAR
STARTCHAR grave
ENCODING 96
SWIDTH 183 0
DWIDTH 4 0
BBX 4 5 0 15
BITMAP
0540
8270
7161
1716
0674
ENDCHAR
STARTCHAR a
ENCODING 97
SWIDTH 507 0
DWIDTH 10 0
BBX 11 14 0 0
BITMAP
003887000000
006206920000
007008160000
008007070000
04A736080000
043048673000
06107A134000
080076119700
0B73AB873440
260373400070
440611447840
800877B30700
800700610810
587700488600
ENDCHAR
STARTCHAR b
ENCODING 98
SWIDTH 533 0
DWIDTH 11 0
BBX 11 16 0 -1
BITMAP
005840000000
098047710000
0A4000877310
088740701470
080298620170
2B7373977A20
1702CA002A10
080344256100
080352876000
1B74B8102920
170277910720
0805AB385950
1C7615218830
5B0001683000
2C2177400000
007810000000
ENDCHAR
STARTCHAR c
ENCODING 99
SWIDTH 515 0
DWIDTH 10 0
BBX 11 16 0 -1
BITMAP
002000000000
037778A65600
070000712620
062111400530
0496A7777900
097570000100
070080000000
070070000000
080170000000
2A7470000000
160340000100
440769877800
800724300440
586912413620
093677865500
016200000000
ENDCHAR
STARTCHAR d
ENCODING 100
SWIDTH 520 0
DWIDTH 10 0
BBX 11 16 0 -1
BITMAP
000460000000
08C435000000
088006500000
087400580000
080560395000
2B74C5506500
160266600460
080340360350
070340498860
1B7378500650
1702D6707300
070460264000
170440650000
430166400000
287976000000
001250000000
ENDCHAR
STARTCHAR e
ENCODING 101
SWIDTH 490 0
DWIDTH 10 0
BBX 10 15 0 -1
BITMAP
08788A7784
0800752007
0802531107
0802A77773
2B73700000
1602A67400
0803410700
0703400700
1B73B78600
1702600000
07049B7781
1704470026
4301640026
2878777781
0010000000
ENDCHAR
STARTCHAR f
ENCODING 102
SWIDTH 475 0
DWIDTH 10 0
BBX 10 15 0 -1
BITMAP
08788A7784
0800752007
0802531107
0802A77773
2B73700000
1602A67400
0803410700
0703400700
1B73B78600
1702600000
0704400000
1704400000
4301600000
2878400000
0010000000
ENDCHAR
STARTCHAR g
ENCODING 103
SWIDTH 557 0
DWIDTH 11 0
BBX 11 16 0 -1
BITMAP
002000000000
037778A65600
070000712620
062111400530
0496A7777900
097570000100
070080003200
070070094560
080170070150
2A7470070160
1603400A7480
440769790070
800724370070
586912470080
093677887760
016200000000
ENDCHAR
STARTCHAR h
ENCODING 104
SWIDTH 611 0
DWIDTH 12 0
BBX 13 15 0 0
BITMAP
00000000110000
08785007768100
08007008006100
08025007107000
08025007107000
2B737009768000
17026008008000
0803400700B500
08035009972710
1B74C862700520
17026600457900
07044679727000
1704A607008000
53017008008000
28783006786000
ENDCHAR
STARTCHAR i
ENCODING 105
SWIDTH 266 0
DWIDTH 5 0
BBX 5 14 0 0
BITMAP
087850
080070
080250
080250
2B7370
170260
080340
080340
1B7470
170260
070430
170440
530170
287830
ENDCHAR
STARTCHAR j
ENCODING 106
SWIDTH 482 0
DWIDTH 10 0
BBX 10 15 -1 -1
BITMAP
0000005888
0000007007
0000006207
0000007107
000000A767
0000008008
0032007007
0858008007
4402709758
1820388018
008464C008
003A007508
0004600808
0000622C77
0000187100
ENDCHAR
STARTCHAR k
ENCODING 107
SWIDTH 541 0
DWIDTH 11 0
BBX 12 15 0 -1
BITMAP
087850007500
080070053370
080250370081
080255900650
2B7388564500
1602C1039000
0803401B1000
070380972000
1B73A7418000
1702BC577100
070474702600
170440800810
430160520450
287840286700
001000011000
ENDCHAR
STARTCHAR l
ENCODING 108
SWIDTH 467 0
DWIDTH 9 0
BBX 10 14 0 0
BITMAP
0878500000
0800700000
0802500000
0802500000
2B73700000
1702600000
0803400000
0803400000
1B74700000
1702600000
0704A87673
1704560007
5301840007
2878987784
ENDCHAR
STARTCHAR m
ENCODING 109
SWIDTH 733 0
DWIDTH 15 0
BBX 15 15 0 -1
BITMAP
0077840029781000
00800A1043037000
0080286061078000
0350527070077000
08767183A7377000
0700756830486400
0700C21D10922600
0700B40900C21700
2B72770773A40800
34045963747A6800
5207071078170610
8007035078070430
8007007019070080
6887008781087870
0000000000001000
ENDCHAR
STARTCHAR n
ENCODING 110
SWIDTH 598 0
DWIDTH 12 0
BBX 12 15 0 -1
BITMAP
088892028782
080087043043
080258025071
080254534070
2B74A5878762
160170681071
0803701B3070
0803C1055080
1A639774A662
17036B108171
070444503570
170440800790
440160700871
28684038D881
001000000000
ENDCHAR
STARTCHAR o
ENCODING 111
SWIDTH 612 0
DWIDTH 12 0
BBX 12 16 0 -1
BITMAP
002000000000
037778A67940
0700007126A0
0621114005A0
0496A7788970
097570067772
070080074062
070070025061
080170007044
2A747001A647
160340009217
440758979696
800720700078
586910602389
094687776A82
016200000000
ENDCHAR
STARTCHAR p
ENCODING 112
SWIDTH 513 0
DWIDTH 10 0
BBX 11 16 0 -1
BITMAP
003810000000
079177500000
0A4000884000
089510704750
0804A7400070
1B73617A5720
260276704820
0803B9106600
080341572000
194261720000
283496000000
070470000000
170430000000
440250000000
474750000000
013100000000
ENDCHAR
STARTCHAR q
ENCODING 113
SWIDTH 612 0
DWIDTH 12 0
BBX 12 18 0 -3
BITMAP
002000000000
037778A67940
0700007126A0
0621114005A0
0496A7788970
097570067772
070080074062
070070025061
080170007044
2A747001A647
160340009217
440758979696
800720700078
586910602389
0946887A6A82
016262070000
000070062000
000037760000
ENDCHAR
STARTCHAR r
ENCODING 114
SWIDTH 532 0
DWIDTH 11 0
BBX 11 16 0 -1
BITMAP
002600000000
069286300000
0B4001A82000
098300716840
0816A6300070
1952638A3630
282275715920
0703BA755710
080477083000
182296026000
29549A237200
070491B31700
170430720530
340250070080
462560074730
036300013100
ENDCHAR
STARTCHAR s
ENCODING 115
SWIDTH 442 0
DWIDTH 9 0
BBX 9 16 0 -1
BITMAP
0000001400
0777B77550
4A75610080
7207347760
6305A40000
0800710000
0367360000
00B0080000
0036018000
0007166300
0002B10800
1338B30550
8442680080
7000684840
7477765400
0400000000
ENDCHAR
STARTCHAR t
ENCODING 116
SWIDTH 453 0
DWIDTH 9 0
BBX 11 16 -1 -1
BITMAP
010000000000
08777B777900
260005200520
171334343710
0464A6854400
000171240000
000496460000
000160430000
000070520000
000272350000
000385560000
000160530000
000250520000
000620350000
000386830000
000001000000
ENDCHAR
STARTCHAR u
ENCODING 117
SWIDTH 583 0
DWIDTH 12 0
BBX 12 15 0 -1
BITMAP
058770187850
071071170170
071070070260
070080070170
0B75800B7480
070070080080
070250080080
070350080080
396460096680
250430083380
440769785880
8007371004A0
753913224963
09567778A981
017300000000
ENDCHAR
STARTCHAR v
ENCODING 118
SWIDTH 506 0
DWIDTH 10 0
BBX 10 15 0 -1
BITMAP
1672000330
9218004658
8008005207
5207007007
352451B635
2B51734163
0700753070
0610880070
03413C7370
01B6360350
0080430700
0061800700
0043800700
00467B8400
0004510000
ENDCHAR
STARTCHAR w
ENCODING 119
SWIDTH 735 0
DWIDTH 15 0
BBX 15 15 0 -1
BITMAP
1672000000077500
9218005770260460
8007036061340530
6108068043620700
44255BB017B62700
3A42777857813800
0700772506702600
0710840703605200
043187687B516100
02A6800A37367100
0080702677008000
0072604378017000
00582042A4025000
0046A98138355000
0004510001530000
ENDCHAR
STARTCHAR x
ENCODING 120
SWIDTH 483 0
DWIDTH 10 0
BBX 10 14 0 0
BITMAP
0373004510
5618008391
8106253036
1800970180
0522B70710
00B8515800
0079007200
004403A200
00A8195800
0621570710
1700960170
8006271045
8008016036
2885007760
ENDCHAR
STARTCHAR y
ENCODING 121
SWIDTH 484 0
DWIDTH 10 0
BBX 12 14 -1 0
BITMAP
017400028710
181810061191
630270070081
072036440440
008266B82700
005903503700
000727107100
000087007000
000077643000
000080181000
000440350000
001800800000
001900700000
000288400000
ENDCHAR
STARTCHAR z
ENCODING 122
SWIDTH 458 0
DWIDTH 9 0
BBX 11 14 -1 0
BITMAP
00777A778200
016005201900
017004122C20
00677A759800
00002C508000
000061347000
000180081000
000810630000
003981800000
008016500000
05501C778100
270086101600
091074101600
019A87778100
ENDCHAR
STARTCHAR braceleft
ENCODING 123
SWIDTH 473 0
DWIDTH 9 0
BBX 10 18 0 -2
BITMAP
0000000220
0017777580
0091070053
0081074691
0025257000
000C517000
0008007000
8668782700
7000057400
8244288300
2537536200
001C407000
0043455000
0080091000
0450186680
0281440062
0029B77480
0000000320
ENDCHAR
STARTCHAR bar
ENCODING 124
SWIDTH 263 0
DWIDTH 5 0
BBX 5 17 0 -1
BITMAP
003200
0A5760
070070
070250
080350
194260
394470
170350
080440
070340
2A6370
272360
070440
070430
250340
630170
188920
ENDCHAR
STARTCHAR braceright
ENCODING 125
SWIDTH 473 0
DWIDTH 9 0
BBX 10 18 0 -2
BITMAP
0300000000
6577774000
7000606400
6756306200
0019307000
0016387000
0061062000
0174786783
0089000007
0089234345
0081592450
0016187000
0007517000
0007206200
6665700800
7000804700
64679B5000
0410000000
ENDCHAR
STARTCHAR asciitilde
ENCODING 126
SWIDTH 456 0
DWIDTH 9 0
BBX 9 5 0 5
BITMAP
0087A08740
0341A65170
170A090700
7155519400
276088B000
ENDCHAR
STARTCHAR nonbreakingspace
ENCODING 160
SWIDTH 200 0
DWIDTH 4 0
BBX 1 1 0 0
BITMAP
00
ENDCHAR
STARTCHAR exclamdown
ENCODING 161
SWIDTH 259 0
DWIDTH 5 0
BBX 5 15 0 -1
BITMAP
047710
070430
081440
015400
067710
080350
070530
070430
160350
267950
070520
160520
340340
473650
014200
ENDCHAR
STARTCHAR cent
ENCODING 162
SWIDTH 480 0
DWIDTH 10 0
BBX 10 19 0 -3
BITMAP
0001773000
0007007000
0006107100
000522B850
0028992070
1952070071
6910047740
3574851000
443A000000
7757100000
4207000000
5207871000
7106368750
19A6070072
0139951071
000523B860
0006007100
0007107000
0001771000
ENDCHAR
STARTCHAR sterling
ENCODING 163
SWIDTH 594 0
DWIDTH 12 0
BBX 12 15 0 -1
BITMAP
000058200000
000570577500
000B40000620
000897510620
000803778700
055B74732000
634602948000
700703408000
556702968000
033A74711000
000703A97791
001704370026
005302650025
002878877781
000010000000
ENDCHAR
STARTCHAR currency
ENCODING 164
SWIDTH 640 0
DWIDTH 13 0
BBX 13 13 0 1
BITMAP
00100000001000
08660571067700
6206475A840530
46039270531720
0289857008A000
01810497185600
08101913A10610
0720872A703810
01C9407624A000
37156017184810
61047781940430
18470487475800
01300002003000
ENDCHAR
STARTCHAR yen
ENCODING 165
SWIDTH 575 0
DWIDTH 12 0
BBX 11 14 0 0
BITMAP
014200026400
193800061480
710440070080
180073440440
026158C60800
008804424700
002807107200
019989A79700
062000700800
053011410700
008A87A87500
001800800000
003600800000
000588400000
ENDCHAR
STARTCHAR brokenbar
ENCODING 166
SWIDTH 258 0
DWIDTH 5 0
BBX 5 19 0 -3
BITMAP
067710
260350
070520
183430
383540
160420
160340
350360
057600
002000
295830
170430
070520
2A7550
250430
160430
350260
286830
001000
ENDCHAR
STARTCHAR section
ENCODING 167
SWIDTH 474 0
DWIDTH 9 0
BBX 9 16 0 -1
BITMAP
0000000300
0877A87550
5300340070
4A84246660
2603BA4100
2720606A60
0297517380
0520892070
1604570520
2A37976800
1982601460
0249720070
2754577870
5200240070
2746777730
0330000000
ENDCHAR
STARTCHAR dieresis
ENCODING 168
SWIDTH 351 0
DWIDTH 7 0
BBX 7 4 0 15
BITMAP
01000000
86848680
70616070
67808760
ENDCHAR
STARTCHAR copyright
ENCODING 169
SWIDTH 719 0
DWIDTH 14 0
BBX 14 16 0 -1
BITMAP
00754543451120
07124654386BC2
1C112411043608
077A5775776607
07060465620607
3A572811174957
34073B97744407
06072570002516
15072570002407
39573477654857
250729B5463407
25060122312416
52097976A79847
46570600610096
08977777777570
00100100100300
ENDCHAR
STARTCHAR ordfeminine
ENCODING 170
SWIDTH 455 0
DWIDTH 9 0
BBX 11 14 -1 0
BITMAP
000589870000
000772061000
000844043000
003508007000
00A40902B000
00844C467100
036679803400
088000700800
277356920620
086860375910
003832263000
007245437000
007000007000
005776675000
ENDCHAR
STARTCHAR guillemotleft
ENCODING 171
SWIDTH 689 0
DWIDTH 14 0
BBX 14 10 0 2
BITMAP
00005300001710
00073640027190
03720070660052
64004828200660
62065008018200
7886600A887300
37102726500570
00730170271071
00065920018480
00004100001300
ENDCHAR
STARTCHAR logicalnot
ENCODING 172
SWIDTH 591 0
DWIDTH 12 0
BBX 12 9 0 0
BITMAP
042013100200
455769777940
700005218581
533555475052
064335326070
000000007060
000000016060
000000027390
000000002410
ENDCHAR
STARTCHAR uni00AD
ENCODING 173
SWIDTH 465 0
DWIDTH 9 0
BBX 9 5 0 4
BITMAP
0654642510
5323465380
7000240070
3767777670
0310110100
ENDCHAR
STARTCHAR registered
ENCODING 174
SWIDTH 719 0
DWIDTH 14 0
BBX 14 16 0 -1
BITMAP
00754543451120
07124654386BC2
1C112411043608
077A5775776607
07060030000607
3A572977754957
34072884074407
06071573732516
15071570002407
39572570004857
25073580003407
25060440002416
52097976A79847
46570600610096
08977777777570
00100100100300
ENDCHAR
STARTCHAR macron
ENCODING 175
SWIDTH 263 0
DWIDTH 5 0
BBX 6 3 0 15
BITMAP
577760
700043
777781
ENDCHAR
STARTCHAR degree
ENCODING 176
SWIDTH 333 0
DWIDTH 7 0
BBX 7 7 0 7
BITMAP
00414000
054A5500
270A1700
80865350
48648A10
27665800
02102100
ENDCHAR
STARTCHAR plusminus
ENCODING 177
SWIDTH 464 0
DWIDTH 9 0
BBX 9 14 0 -3
BITMAP
0005781000
0007007000
0537555310
4444676480
7000240070
4556667570
0427362310
0007043000
0005871000
0654642510
5323465380
7000240070
3767777670
0310110100
ENDCHAR
STARTCHAR twosuperior
ENCODING 178
SWIDTH 324 0
DWIDTH 6 0
BBX 6 8 0 6
BITMAP
365553
600006
367566
006052
051240
330756
295306
077556
ENDCHAR
STARTCHAR threesuperior
ENCODING 179
SWIDTH 332 0
DWIDTH 7 0
BBX 7 9 0 5
BITMAP
36555300
60000B00
46666900
01670500
01570500
06680510
33046910
17555400
01000000
ENDCHAR
STARTCHAR acute
ENCODING 180
SWIDTH 202 0
DWIDTH 4 0
BBX 4 5 0 15
BITMAP
0040
0648
1718
8081
7830
ENDCHAR
STARTCHAR mu
ENCODING 181
SWIDTH 582 0
DWIDTH 12 0
BBX 12 17 0 -3
BITMAP
027740077820
080090350260
070070080440
070070070340
0800701A7470
0B7480190170
091170070170
070070080080
070160093280
070170095480
0B63977A6880
071288000680
070355101871
0704877BA881
350361003300
540270000000
057600000000
ENDCHAR
STARTCHAR paragraph
ENCODING 182
SWIDTH 556 0
DWIDTH 11 0
BBX 11 16 0 -1
BITMAP
000000282000
000058709700
004880006640
673070169710
700047850700
465B61675720
483075832720
076029B30800
003750530800
000371641610
000018955720
000000920700
000000520800
000000700710
000000742810
000000045100
ENDCHAR
STARTCHAR periodcentered
ENCODING 183
SWIDTH 215 0
DWIDTH 4 0
BBX 4 4 0 5
BITMAP
3775
4307
3637
0230
ENDCHAR
STARTCHAR cedilla
ENCODING 184
SWIDTH 237 0
DWIDTH 5 0
BBX 5 7 0 -5
BITMAP
002730
007060
006060
038070
935860
847710
240000
ENDCHAR
STARTCHAR onesuperior
ENCODING 185
SWIDTH 286 0
DWIDTH 6 0
BBX 6 8 0 6
BITMAP
004650
053060
710681
719150
156050
005060
005041
004671
ENDCHAR
STARTCHAR ordmasculine
ENCODING 186
SWIDTH 476 0
DWIDTH 10 0
BBX 10 14 0 0
BITMAP
0877987850
4300161380
5300078491
5A7A785051
3406006060
3406016060
52098997B0
6648161090
4530050070
0977777760
0164212100
0722454800
0700000700
0386667700
ENDCHAR
STARTCHAR guillemotright
ENCODING 187
SWIDTH 689 0
DWIDTH 14 0
BBX 14 10 0 2
BITMAP
02600000540000
28281006455000
52017507003720
17500373720063
00370180064053
00568880186894
17300654710282
44028107005600
09470004764000
00400000130000
ENDCHAR
STARTCHAR onequarter
ENCODING 188
SWIDTH 790 0
DWIDTH 16 0
BBX 16 14 0 0
BITMAP
0017700241000000
0450430617200000
6204650606000000
5255141606000000
0435246506000000
0014146245000000
0032056060006500
0027636060051440
0000038260424562
0000051365308232
0000060527056591
00000606076400A1
0000250602658643
0000036400003662
ENDCHAR
STARTCHAR onehalf
ENCODING 189
SWIDTH 771 0
DWIDTH 15 0
BBX 15 15 0 -1
BITMAP
0017700241000000
0450430617200000
6204650606000000
5255141606000000
0435246506000000
0014146245000000
0032056062532300
0027636066023250
0000038266243250
0000051361372730
0000060520421500
0000060602407430
0000250605224160
0000036402BB5470
0000000000100110
ENDCHAR
STARTCHAR threequarters
ENCODING 190
SWIDTH 817 0
DWIDTH 16 0
BBX 16 14 0 0
BITMAP
3655530034000000
60000B0072700000
36666A0140600000
0168050512400000
0167050935100000
0668041727000000
2404691606002630
0755543306006070
0100007524060647
0000006163612805
0000006071507576
0000033060962048
0000061060455856
0000005620000666
ENDCHAR
STARTCHAR questiondown
ENCODING 191
SWIDTH 455 0
DWIDTH 9 0
BBX 9 15 0 -1
BITMAP
0000476500
0000610600
0000566600
0000021000
0000767400
0000703400
0002884400
005601A500
4830037000
7877A40000
7101577610
7312500270
147A400080
0001576830
0000002200
ENDCHAR
STARTCHAR Agrave
ENCODING 192
SWIDTH 507 0
DWIDTH 10 0
BBX 11 20 0 0
BITMAP
000360000000
004643000000
002616000000
000617000000
000197000000
000000000000
003887000000
006206920000
007008160000
008007070000
04A736080000
043048673000
06107A134000
080076119700
0B73AB873440
260373400070
440611447840
800877B30700
800700610810
587700488600
ENDCHAR
STARTCHAR Aacute
ENCODING 193
SWIDTH 507 0
DWIDTH 10 0
BBX 11 20 0 0
BITMAP
000000230000
000000855000
000005335000
000026260000
000018800000
000000000000
003887000000
006206920000
007008160000
008007070000
04A736080000
043048673000
06107A134000
080076119700
0B73AB873440
260373400070
440611447840
800877B30700
800700610810
587700488600
ENDCHAR
STARTCHAR Acircumflex
ENCODING 194
SWIDTH 507 0
DWIDTH 10 0
BBX 11 20 0 0
BITMAP
00019A500000
000715A00000
004428170000
007077153000
005741880000
000000000000
003887000000
006206920000
007008160000
008007070000
04A736080000
043048673000
06107A134000
080076119700
0B73AB873440
260373400070
440611447840
800877B30700
800700610810
587700488600
ENDCHAR
STARTCHAR Atilde
ENCODING 195
SWIDTH 507 0
DWIDTH 10 0
BBX 11 19 0 0
BITMAP
000888097300
00622B623500
026190908000
0706623A2000
037508980000
003887000000
006206920000
007008160000
008007070000
04A736080000
043048673000
06107A134000
080076119700
0B73AB873440
260373400070
440611447840
800877B30700
800700610810
587700488600
ENDCHAR
STARTCHAR Adieresis
ENCODING 196
SWIDTH 507 0
DWIDTH 10 0
BBX 11 19 0 0
BITMAP
000100000000
028694766000
007065216000
008673883000
000000000000
003887000000
006206920000
007008160000
008007070000
04A736080000
043048673000
06107A134000
080076119700
0B73AB873440
260373400070
440611447840
800877B30700
800700610810
587700488600
ENDCHAR
STARTCHAR Aring
ENCODING 197
SWIDTH 507 0
DWIDTH 10 0
BBX 11 20 0 0
BITMAP
000287710000
000808260000
00633A071000
0073A8643000
005510590000
002777750000
003887000000
006206920000
007008160000
008007070000
04A736080000
043048673000
06107A134000
080076119700
0B73AB873440
260373400070
440611447840
800877B30700
800700610810
587700488600
ENDCHAR
STARTCHAR AE
ENCODING 198
SWIDTH 797 0
DWIDTH 16 0
BBX 17 15 -1 -1
BITMAP
000000457889987760
000000739107250070
000005203607231080
00001800A00B777740
00009815C748000000
00007058800B675000
000620458016107000
001700808007007000
00885487B74A777000
008038108017000000
06205A77801AB77820
450081007016610070
370260025008400070
048820018788777820
000000000100000000
ENDCHAR
STARTCHAR Ccedilla
ENCODING 199
SWIDTH 515 0
DWIDTH 10 0
BBX 11 20 0 -5
BITMAP
002000000000
037778A65600
070000712620
062111400530
0496A7777900
097570000100
070080000000
070070000000
080170000000
2A7470000000
160340000100
440769877800
800724300440
586912413620
093679895500
016207160000
000147060000
001836A40000
001757600000
000330000000
ENDCHAR
STARTCHAR Egrave
ENCODING 200
SWIDTH 490 0
DWIDTH 10 0
BBX 10 21 0 -1
BITMAP
0001620000
0018260000
0008070000
0003443000
0000882000
0000000000
08788A7784
0800752007
0802531107
0802A77773
2B73700000
1602A67400
0803410700
0703400700
1B73B78600
1702600000
07049B7781
1704470026
4301640026
2878777781
0010000000
ENDCHAR
STARTCHAR Eacute
ENCODING 201
SWIDTH 490 0
DWIDTH 10 0
BBX 10 21 0 -1
BITMAP
0000004000
0000064800
0000171800
0000808000
0000792000
0000000000
08788A7784
0800752007
0802531107
0802A77773
2B73700000
1602A67400
0803410700
0703400700
1B73B78600
1702600000
07049B7781
1704470026
4301640026
2878777781
0010000000
ENDCHAR
STARTCHAR Ecircumflex
ENCODING 202
SWIDTH 490 0
DWIDTH 10 0
BBX 10 21 0 -1
BITMAP
00029A5000
000705A000
0044282600
0070770620
0058328800
0000000000
08788A7784
0800752007
0802531107
0802A77773
2B73700000
1602A67400
0803410700
0703400700
1B73B78600
1702600000
07049B7781
1704470026
4301640026
2878777781
0010000000
ENDCHAR
STARTCHAR Edieresis
ENCODING 203
SWIDTH 490 0
DWIDTH 10 0
BBX 10 20 0 -1
BITMAP
0001000000
0286957760
0070661250
0086637820
0000000000
08788A7784
0800752007
0802531107
0802A77773
2B73700000
1602A67400
0803410700
0703400700
1B73B78600
1702600000
07049B7781
1704470026
4301640026
2878777781
0010000000
ENDCHAR
STARTCHAR Igrave
ENCODING 204
SWIDTH 266 0
DWIDTH 5 0
BBX 5 20 0 0
BITMAP
153000
927000
807000
162500
067300
000000
087850
080070
080250
080250
2B7370
170260
080340
080340
1B7470
170260
070430
170440
530170
287830
ENDCHAR
STARTCHAR Iacute
ENCODING 205
SWIDTH 266 0
DWIDTH 5 0
BBX 6 20 0 0
BITMAP
000040
000648
001718
008080
007920
000000
087850
080070
080250
080250
2B7370
170260
080340
080340
1B7470
170260
070430
170440
530170
287830
ENDCHAR
STARTCHAR Icircumflex
ENCODING 206
SWIDTH 266 0
DWIDTH 5 0
BBX 7 20 -1 0
BITMAP
0048B300
00707800
06246450
17077080
06814770
00000000
00878500
00800700
00802500
00802500
02B73700
01702600
00803400
00803400
01B74700
01702600
00704300
01704400
05301700
02878300
ENDCHAR
STARTCHAR Idieresis
ENCODING 207
SWIDTH 266 0
DWIDTH 5 0
BBX 8 19 -1 0
BITMAP
00100100
66667682
52157070
38736780
00000000
00878500
00800700
00802500
00802500
02B73700
01702600
00803400
00803400
01B74700
01702600
00704300
01704400
05301700
02878300
ENDCHAR
STARTCHAR Eth
ENCODING 208
SWIDTH 669 0
DWIDTH 13 0
BBX 15 16 -1 -1
BITMAP
0000000460000000
000008C435000000
0000088006500000
0000087400580000
0000080560395000
00002B74C5506500
08667A6266600460
4400006540360350
3400006440498870
06767DC378500650
00001702D6707300
0000070460264000
0000160440650000
0000430166400000
0000287976000000
0000001250000000
ENDCHAR
STARTCHAR Ntilde
ENCODING 209
SWIDTH 598 0
DWIDTH 12 0
BBX 12 21 0 -1
BITMAP
000077B07650
000260966070
000809281710
005245608600
00177077C100
000000000000
088892028782
080087043043
080258025071
080254534070
2B74A5878762
160170681071
0803701B3070
0803C1055080
1A639774A662
17036B108171
070444503570
170440800790
440160700871
28684038D881
001000000000
ENDCHAR
STARTCHAR Ograve
ENCODING 210
SWIDTH 612 0
DWIDTH 12 0
BBX 12 21 0 -1
BITMAP
000005400000
000083700000
000071610000
000007170000
000005740000
002000000000
037778A67940
0700007126A0
0621114005A0
0496A7788970
097570067772
070080074062
070070025061
080170007044
2A747001A647
160340009217
440758979696
800720700078
586910602389
094687776A82
016200000000
ENDCHAR
STARTCHAR Oacute
ENCODING 211
SWIDTH 612 0
DWIDTH 12 0
BBX 12 21 0 -1
BITMAP
000000023000
000000085400
000000624500
000003635000
000002880000
002000000000
037778A67940
0700007126A0
0621114005A0
0496A7788970
097570067772
070080074062
070070025061
080170007044
2A747001A647
160340009217
440758979696
800720700078
586910602389
094687776A82
016200000000
ENDCHAR
STARTCHAR Ocircumflex
ENCODING 212
SWIDTH 612 0
DWIDTH 12 0
BBX 12 21 0 -1
BITMAP
000008890000
0000532B2000
000270A08000
000706632600
000376088200
002000000000
037778A67940
0700007126A0
0621114005A0
0496A7788970
097570067772
070080074062
070070025061
080170007044
2A747001A647
160340009217
440758979696
800720700078
586910602389
094687776A82
016200000000
ENDCHAR
STARTCHAR Otilde
ENCODING 213
SWIDTH 612 0
DWIDTH 12 0
BBX 12 21 0 -1
BITMAP
000057B26670
000070877080
000716454530
002516807700
00078067C200
002000000000
037778A67940
0700007126A0
0621114005A0
0496A7788970
097570067772
070080074062
070070025061
080170007044
2A747001A647
160340009217
440758979696
800720700078
586910602389
094687776A82
016200000000
ENDCHAR
STARTCHAR Odieresis
ENCODING 214
SWIDTH 612 0
DWIDTH 12 0
BBX 12 20 0 -1
BITMAP
000010000000
003768667500
001606703400
000976478100
002000000000
037778A67940
0700007126A0
0621114005A0
0496A7788970
097570067772
070080074062
070070025061
080170007044
2A747001A647
160340009217
440758979696
800720700078
586910602389
094687776A82
016200000000
ENDCHAR
STARTCHAR multiply
ENCODING 215
SWIDTH 421 0
DWIDTH 8 0
BBX 8 9 0 2
BITMAP
00210000
08581993
5303B108
56002A27
04907590
37482047
52078008
08752892
00100100
ENDCHAR
STARTCHAR Oslash
ENCODING 216
SWIDTH 612 0
DWIDTH 12 0
BBX 12 16 0 -1
BITMAP
002000000000
037778A67950
070000726082
062111471062
0496A7A504B0
097571C40A72
070086156362
070087018061
0800C1087044
2A779036A647
160838709217
444404B79696
827017700078
590071602389
0810B7776A82
018820000000
ENDCHAR
STARTCHAR Ugrave
ENCODING 217
SWIDTH 583 0
DWIDTH 12 0
BBX 12 20 0 -1
BITMAP
000036000000
000556100000
000352500000
000070700000
000019700000
058770187850
071071170170
071070070260
070080070170
0B75800B7480
070070080080
070250080080
070350080080
396460096680
250430083380
440769785880
8007371004A0
753913224963
09567778A981
017300000000
ENDCHAR
STARTCHAR Uacute
ENCODING 218
SWIDTH 583 0
DWIDTH 12 0
BBX 12 21 0 -1
BITMAP
000000230000
000000846000
000004426000
000017170000
000018800000
000000000000
058770187850
071071170170
071070070260
070080070170
0B75800B7480
070070080080
070250080080
070350080080
396460096680
250430083380
440769785880
8007371004A0
753913224963
09567778A981
017300000000
ENDCHAR
STARTCHAR Ucircumflex
ENCODING 219
SWIDTH 583 0
DWIDTH 12 0
BBX 12 21 0 -1
BITMAP
000067B10000
000160960000
000808362000
004326708000
000880675000
000000000000
058770187850
071071170170
071070070260
070080070170
0B75800B7480
070070080080
070250080080
070350080080
396460096680
250430083380
440769785880
8007371004A0
753913224963
09567778A981
017300000000
ENDCHAR
STARTCHAR Udieresis
ENCODING 220
SWIDTH 583 0
DWIDTH 12 0
BBX 12 20 0 -1
BITMAP
000010010000
006666868200
006124707000
003882777000
000000000000
058770187850
071071170170
071070070260
070080070170
0B75800B7480
070070080080
070250080080
070350080080
396460096680
250430083380
440769785880
8007371004A0
753913224963
09567778A981
017300000000
ENDCHAR
STARTCHAR Yacute
ENCODING 221
SWIDTH 484 0
DWIDTH 10 0
BBX 12 19 -1 0
BITMAP
000000140000
000000737000
000002617000
000008080000
000008910000
017400028710
181810061191
630270070081
072036440440
008266B82700
005903503700
000727107100
000087007000
000077643000
000080181000
000440350000
001800800000
001900700000
000288400000
ENDCHAR
STARTCHAR Thorn
ENCODING 222
SWIDTH 520 0
DWIDTH 10 0
BBX 11 15 0 -1
BITMAP
077830000000
071680000000
079286300000
0A5001A82000
1C8300716740
2726B5300070
0803438A3540
080344815930
1942BA105810
183471664000
070441740000
170458100000
4402A0000000
384750000000
013100000000
ENDCHAR
STARTCHAR germandbls
ENCODING 223
SWIDTH 884 0
DWIDTH 18 0
BBX 18 16 0 -1
BITMAP
000000140000000140
0777B77551777B7663
4A7561008698370017
720734776810734784
6305A4000710783000
080071000070080000
036736000055744000
00B00800001A008000
003601800004503700
000716630000817710
0002B1080000490260
1338B30552348C1063
844268009853547008
700068485600248482
747776540847776530
040000000140000000
ENDCHAR
STARTCHAR agrave
ENCODING 224
SWIDTH 507 0
DWIDTH 10 0
BBX 11 20 0 0
BITMAP
000360000000
004643000000
002616000000
000617000000
000197000000
000000000000
003887000000
006206920000
007008160000
008007070000
04A736080000
043048673000
06107A134000
080076119700
0B73AB873440
260373400070
440611447840
800877B30700
800700610810
587700488600
ENDCHAR
STARTCHAR aacute
ENCODING 225
SWIDTH 507 0
DWIDTH 10 0
BBX 11 20 0 0
BITMAP
000000230000
000000855000
000005335000
000026260000
000018800000
000000000000
003887000000
006206920000
007008160000
008007070000
04A736080000
043048673000
06107A134000
080076119700
0B73AB873440
260373400070
440611447840
800877B30700
800700610810
587700488600
ENDCHAR
STARTCHAR acircumflex
ENCODING 226
SWIDTH 507 0
DWIDTH 10 0
BBX 11 20 0 0
BITMAP
00019A500000
000715A00000
004428170000
007077153000
005741880000
000000000000
003887000000
006206920000
007008160000
008007070000
04A736080000
043048673000
06107A134000
080076119700
0B73AB873440
260373400070
440611447840
800877B30700
800700610810
587700488600
ENDCHAR
STARTCHAR atilde
ENCODING 227
SWIDTH 507 0
DWIDTH 10 0
BBX 11 19 0 0
BITMAP
000888097300
00622B623500
026190908000
0706623A2000
037508980000
003887000000
006206920000
007008160000
008007070000
04A736080000
043048673000
06107A134000
080076119700
0B73AB873440
260373400070
440611447840
800877B30700
800700610810
587700488600
ENDCHAR
STARTCHAR adieresis
ENCODING 228
SWIDTH 507 0
DWIDTH 10 0
BBX 11 19 0 0
BITMAP
000100000000
028694766000
007065216000
008673883000
000000000000
003887000000
006206920000
007008160000
008007070000
04A736080000
043048673000
06107A134000
080076119700
0B73AB873440
260373400070
440611447840
800877B30700
800700610810
587700488600
ENDCHAR
STARTCHAR aring
ENCODING 229
SWIDTH 507 0
DWIDTH 10 0
BBX 11 20 0 0
BITMAP
000287710000
000808260000
00633A071000
0073A8643000
005510590000
002777750000
003887000000
006206920000
007008160000
008007070000
04A736080000
043048673000
06107A134000
080076119700
0B73AB873440
260373400070
440611447840
800877B30700
800700610810
587700488600
ENDCHAR
STARTCHAR ae
ENCODING 230
SWIDTH 797 0
DWIDTH 16 0
BBX 17 15 -1 -1
BITMAP
000000457889987760
000000739107250070
000005203607231080
00001800A00B777740
00009815C748000000
00007058800B675000
000620458016107000
001700808007007000
00885487B74A777000
008038108017000000
06205A77801AB77820
450081007016610070
370260025008400070
048820018788777820
000000000100000000
ENDCHAR
STARTCHAR ccedilla
ENCODING 231
SWIDTH 515 0
DWIDTH 10 0
BBX 11 20 0 -5
BITMAP
002000000000
037778A65600
070000712620
062111400530
0496A7777900
097570000100
070080000000
070070000000
080170000000
2A7470000000
160340000100
440769877800
800724300440
586912413620
093679895500
016207160000
000147060000
001836A40000
001757600000
000330000000
ENDCHAR
STARTCHAR egrave
ENCODING 232
SWIDTH 490 0
DWIDTH 10 0
BBX 10 21 0 -1
BITMAP
0001620000
0018260000
0008070000
0003443000
0000882000
0000000000
08788A7784
0800752007
0802531107
0802A77773
2B73700000
1602A67400
0803410700
0703400700
1B73B78600
1702600000
07049B7781
1704470026
4301640026
2878777781
0010000000
ENDCHAR
STARTCHAR eacute
ENCODING 233
SWIDTH 490 0
DWIDTH 10 0
BBX 10 21 0 -1
BITMAP
0000004000
0000064800
0000171800
0000808000
0000792000
0000000000
08788A7784
0800752007
0802531107
0802A77773
2B73700000
1602A67400
0803410700
0703400700
1B73B78600
1702600000
07049B7781
1704470026
4301640026
2878777781
0010000000
ENDCHAR
STARTCHAR ecircumflex
ENCODING 234
SWIDTH 490 0
DWIDTH 10 0
BBX 10 21 0 -1
BITMAP
00029A5000
000705A000
0044282600
0070770620
0058328800
0000000000
08788A7784
0800752007
0802531107
0802A77773
2B73700000
1602A67400
0803410700
0703400700
1B73B78600
1702600000
07049B7781
1704470026
4301640026
2878777781
0010000000
ENDCHAR
STARTCHAR edieresis
ENCODING 235
SWIDTH 490 0
DWIDTH 10 0
BBX 10 20 0 -1
BITMAP
0001000000
0286957760
0070661250
0086637820
0000000000
08788A7784
0800752007
0802531107
0802A77773
2B73700000
1602A67400
0803410700
0703400700
1B73B78600
1702600000
07049B7781
1704470026
4301640026
2878777781
0010000000
ENDCHAR
STARTCHAR igrave
ENCODING 236
SWIDTH 266 0
DWIDTH 5 0
BBX 5 20 0 0
BITMAP
153000
927000
807000
162500
067300
000000
087850
080070
080250
080250
2B7370
170260
080340
080340
1B7470
170260
070430
170440
530170
287830
ENDCHAR
STARTCHAR iacute
ENCODING 237
SWIDTH 266 0
DWIDTH 5 0
BBX 6 20 0 0
BITMAP
000040
000648
001718
008080
007920
000000
087850
080070
080250
080250
2B7370
170260
080340
080340
1B7470
170260
070430
170440
530170
287830
ENDCHAR
STARTCHAR icircumflex
ENCODING 238
SWIDTH 266 0
DWIDTH 5 0
BBX 7 20 -1 0
BITMAP
0048B300
00707800
06246450
17077080
06814770
00000000
00878500
00800700
00802500
00802500
02B73700
01702600
00803400
00803400
01B74700
01702600
00704300
01704400
05301700
02878300
ENDCHAR
STARTCHAR idieresis
ENCODING 239
SWIDTH 266 0
DWIDTH 5 0
BBX 8 19 -1 0
BITMAP
00100100
66667682
52157070
38736780
00000000
00878500
00800700
00802500
00802500
02B73700
01702600
00803400
00803400
01B74700
01702600
00704300
01704400
05301700
02878300
ENDCHAR
STARTCHAR eth
ENCODING 240
SWIDTH 669 0
DWIDTH 13 0
BBX 15 16 -1 -1
BITMAP
0000000460000000
000008C435000000
0000088006500000
0000087400580000
0000080560395000
00002B74C5506500
08667A6266600460
4400006540360350
3400006440498870
06767DC378500650
00001702D6707300
0000070460264000
0000160440650000
0000430166400000
0000287976000000
0000001250000000
ENDCHAR
STARTCHAR ntilde
ENCODING 241
SWIDTH 598 0
DWIDTH 12 0
BBX 12 21 0 -1
BITMAP
000077B07650
000260966070
000809281710
005245608600
00177077C100
000000000000
088892028782
080087043043
080258025071
080254534070
2B74A5878762
160170681071
0803701B3070
0803C1055080
1A639774A662
17036B108171
070444503570
170440800790
440160700871
28684038D881
001000000000
ENDCHAR
STARTCHAR ograve
ENCODING 242
SWIDTH 612 0
DWIDTH 12 0
BBX 12 21 0 -1
BITMAP
000005400000
000083700000
000071610000
000007170000
000005740000
002000000000
037778A67940
0700007126A0
0621114005A0
0496A7788970
097570067772
070080074062
070070025061
080170007044
2A747001A647
160340009217
440758979696
800720700078
586910602389
094687776A82
016200000000
ENDCHAR
STARTCHAR oacute
ENCODING 243
SWIDTH 612 0
DWIDTH 12 0
BBX 12 21 0 -1
BITMAP
000000023000
000000085400
000000624500
000003635000
000002880000
002000000000
037778A67940
0700007126A0
0621114005A0
0496A7788970
097570067772
070080074062
070070025061
080170007044
2A747001A647
160340009217
440758979696
800720700078
586910602389
094687776A82
016200000000
ENDCHAR
STARTCHAR ocircumflex
ENCODING 244
SWIDTH 612 0
DWIDTH 12 0
BBX 12 21 0 -1
BITMAP
000008890000
0000532B2000
000270A08000
000706632600
000376088200
002000000000
037778A67940
0700007126A0
0621114005A0
0496A7788970
097570067772
070080074062
070070025061
080170007044
2A747001A647
160340009217
440758979696
800720700078
586910602389
094687776A82
016200000000
ENDCHAR
STARTCHAR otilde
ENCODING 245
SWIDTH 612 0
DWIDTH 12 0
BBX 12 21 0 -1
BITMAP
000057B26670
000070877080
000716454530
002516807700
00078067C200
002000000000
037778A67940
0700007126A0
0621114005A0
0496A7788970
097570067772
070080074062
070070025061
080170007044
2A747001A647
160340009217
440758979696
800720700078
586910602389
094687776A82
016200000000
ENDCHAR
STARTCHAR odieresis
ENCODING 246
SWIDTH 612 0
DWIDTH 12 0
BBX 12 20 0 -1
BITMAP
000010000000
003768667500
001606703400
000976478100
002000000000
037778A67940
0700007126A0
0621114005A0
0496A7788970
097570067772
070080074062
070070025061
080170007044
2A747001A647
160340009217
440758979696
800720700078
586910602389
094687776A82
016200000000
ENDCHAR
STARTCHAR divide
ENCODING 247
SWIDTH 457 0
DWIDTH 9 0
BBX 9 12 0 1
BITMAP
0001410000
0008381000
0006060000
0007680000
0754643510
6223665370
7000330070
4667777660
0311520100
0009381000
0007060000
0007780000
ENDCHAR
STARTCHAR oslash
ENCODING 248
SWIDTH 612 0
DWIDTH 12 0
BBX 12 16 0 -1
BITMAP
002000000000
037778A67950
070000726082
062111471062
0496A7A504B0
097571C40A72
070086156362
070087018061
0800C1087044
2A779036A647
160838709217
444404B79696
827017700078
590071602389
0810B7776A82
018820000000
ENDCHAR
STARTCHAR ugrave
ENCODING 249
SWIDTH 583 0
DWIDTH 12 0
BBX 12 20 0 -1
BITMAP
000036000000
000556100000
000352500000
000070700000
000019700000
058770187850
071071170170
071070070260
070080070170
0B75800B7480
070070080080
070250080080
070350080080
396460096680
250430083380
440769785880
8007371004A0
753913224963
09567778A981
017300000000
ENDCHAR
STARTCHAR uacute
ENCODING 250
SWIDTH 583 0
DWIDTH 12 0
BBX 12 21 0 -1
BITMAP
000000230000
000000846000
000004426000
000017170000
000018800000
000000000000
058770187850
071071170170
071070070260
070080070170
0B75800B7480
070070080080
070250080080
070350080080
396460096680
250430083380
440769785880
8007371004A0
753913224963
09567778A981
017300000000
ENDCHAR
STARTCHAR ucircumflex
ENCODING 251
SWIDTH 583 0
DWIDTH 12 0
BBX 12 21 0 -1
BITMAP
000067B10000
000160960000
000808362000
004326708000
000880675000
000000000000
058770187850
071071170170
071070070260
070080070170
0B75800B7480
070070080080
070250080080
070350080080
396460096680
250430083380
440769785880
8007371004A0
753913224963
09567778A981
017300000000
ENDCHAR
STARTCHAR udieresis
ENCODING 252
SWIDTH 583 0
DWIDTH 12 0
BBX 12 20 0 -1
BITMAP
000010010000
006666868200
006124707000
003882777000
000000000000
058770187850
071071170170
071070070260
070080070170
0B75800B7480
070070080080
070250080080
070350080080
396460096680
250430083380
440769785880
8007371004A0
753913224963
09567778A981
017300000000
ENDCHAR
STARTCHAR yacute
ENCODING 253
SWIDTH 484 0
DWIDTH 10 0
BBX 12 19 -1 0
BITMAP
000000140000
000000737000
000002617000
000008080000
000008910000
017400028710
181810061191
630270070081
072036440440
008266B82700
005903503700
000727107100
000087007000
000077643000
000080181000
000440350000
001800800000
001900700000
000288400000
ENDCHAR
STARTCHAR thorn
ENCODING 254
SWIDTH 520 0
DWIDTH 10 0
BBX 11 15 0 -1
BITMAP
077830000000
071680000000
079286300000
0A5001A82000
1C8300716740
2726B5300070
0803438A3540
080344815930
1942BA105810
183471664000
070441740000
170458100000
4402A0000000
384750000000
013100000000
ENDCHAR
STARTCHAR ydieresis
ENCODING 255
SWIDTH 484 0
DWIDTH 10 0
BBX 12 18 -1 0
BITMAP
000010000000
005667768300
004306706100
002874678000
017400028710
181810061191
630270070081
072036440440
008266B82700
005903503700
000727107100
000087007000
000077643000
000080181000
000440350000
001800800000
001900700000
000288400000
ENDCHAR
STARTCHAR Amacron
ENCODING 256
SWIDTH 507 0
DWIDTH 10 0
BBX 11 17 0 0
BITMAP
001777730000
006000070000
004777750000
003887000000
006206920000
007008160000
008007070000
04A736080000
043048673000
06107A134000
080076119700
0B73AB873440
260373400070
440611447840
800877B30700
800700610810
587700488600
ENDCHAR
STARTCHAR amacron
ENCODING 257
SWIDTH 507 0
DWIDTH 10 0
BBX 11 17 0 0
BITMAP
001777730000
006000070000
004777750000
003887000000
006206920000
007008160000
008007070000
04A736080000
043048673000
06107A134000
080076119700
0B73AB873440
260373400070
440611447840
800877B30700
800700610810
587700488600
ENDCHAR
STARTCHAR Abreve
ENCODING 258
SWIDTH 507 0
DWIDTH 10 0
BBX 11 19 0 0
BITMAP
017721760000
025243444000
007199770000
007081680000
003A87920000
003887000000
006206920000
007008160000
008007070000
04A736080000
043048673000
06107A134000
080076119700
0B73AB873440
260373400070
440611447840
800877B30700
800700610810
587700488600
ENDCHAR
STARTCHAR abreve
ENCODING 259
SWIDTH 507 0
DWIDTH 10 0
BBX 11 19 0 0
BITMAP
017721760000
025243444000
007199770000
007081680000
003A87920000
003887000000
006206920000
007008160000
008007070000
04A736080000
043048673000
06107A134000
080076119700
0B73AB873440
260373400070
440611447840
800877B30700
800700610810
587700488600
ENDCHAR
STARTCHAR Aogonek
ENCODING 260
SWIDTH 507 0
DWIDTH 10 0
BBX 11 19 0 -5
BITMAP
003887000000
006206920000
007008160000
008007070000
04A736080000
043048673000
06107A134000
080076119700
0B73AB873440
260373400070
440611447840
800877B30700
800700610810
587700498900
000000526100
00000075A600
0000001A2170
000000008640
000000000200
ENDCHAR
STARTCHAR aogonek
ENCODING 261
SWIDTH 507 0
DWIDTH 10 0
BBX 11 19 0 -5
BITMAP
003887000000
006206920000
007008160000
008007070000
04A736080000
043048673000
06107A134000
080076119700
0B73AB873440
260373400070
440611447840
800877B30700
800700610810
587700498900
000000526100
00000075A600
0000001A2170
000000008640
000000000200
ENDCHAR
STARTCHAR Cacute
ENCODING 262
SWIDTH 515 0
DWIDTH 10 0
BBX 11 21 0 -1
BITMAP
000000040000
000000648000
000001718000
000008080000
000007920000
002000000000
037778A65600
070000712620
062111400530
0496A7777900
097570000100
070080000000
070070000000
080170000000
2A7470000000
160340000100
440769877800
800724300440
586912413620
093677865500
016200000000
ENDCHAR
STARTCHAR cacute
ENCODING 263
SWIDTH 515 0
DWIDTH 10 0
BBX 11 21 0 -1
BITMAP
000000040000
000000648000
000001718000
000008080000
000007920000
002000000000
037778A65600
070000712620
062111400530
0496A7777900
097570000100
070080000000
070070000000
080170000000
2A7470000000
160340000100
440769877800
800724300440
586912413620
093677865500
016200000000
ENDCHAR
STARTCHAR Ccircumflex
ENCODING 264
SWIDTH 515 0
DWIDTH 10 0
BBX 11 20 0 -1
BITMAP
000019970000
0000613B1000
000351918000
000707614400
002575188100
037778A65600
070000712620
062111400530
0496A7777900
097570000100
070080000000
070070000000
080170000000
2A7470000000
160340000100
440769877800
800724300440
586912413620
093677865500
016200000000
ENDCHAR
STARTCHAR ccircumflex
ENCODING 265
SWIDTH 515 0
DWIDTH 10 0
BBX 11 20 0 -1
BITMAP
000019970000
0000613B1000
000351918000
000707614400
002575188100
037778A65600
070000712620
062111400530
0496A7777900
097570000100
070080000000
070070000000
080170000000
2A7470000000
160340000100
440769877800
800724300440
586912413620
093677865500
016200000000
ENDCHAR
STARTCHAR Cdotaccent
ENCODING 266
SWIDTH 515 0
DWIDTH 10 0
BBX 11 20 0 -1
BITMAP
000000100000
000057670000
000034060000
000019750000
002000000000
037778A65600
070000712620
062111400530
0496A7777900
097570000100
070080000000
070070000000
080170000000
2A7470000000
160340000100
440769877800
800724300440
586912413620
093677865500
016200000000
ENDCHAR
STARTCHAR cdotaccent
ENCODING 267
SWIDTH 515 0
DWIDTH 10 0
BBX 11 20 0 -1
BITMAP
000000100000
000057670000
000034060000
000019750000
002000000000
037778A65600
070000712620
062111400530
0496A7777900
097570000100
070080000000
070070000000
080170000000
2A7470000000
160340000100
440769877800
800724300440
586912413620
093677865500
016200000000
ENDCHAR
STARTCHAR Ccaron
ENCODING 268
SWIDTH 515 0
DWIDTH 10 0
BBX 11 21 0 -1
BITMAP
000010010000
000756288100
000706806200
000161736000
000070780000
002027A40000
037778A65600
070000712620
062111400530
0496A7777900
097570000100
070080000000
070070000000
080170000000
2A7470000000
160340000100
440769877800
800724300440
586912413620
093677865500
016200000000
ENDCHAR
STARTCHAR ccaron
ENCODING 269
SWIDTH 515 0
DWIDTH 10 0
BBX 11 21 0 -1
BITMAP
000010010000
000756288100
000706806200
000161736000
000070780000
002027A40000
037778A65600
070000712620
062111400530
0496A7777900
097570000100
070080000000
070070000000
080170000000
2A7470000000
160340000100
440769877800
800724300440
586912413620
093677865500
016200000000
ENDCHAR
STARTCHAR Dcaron
ENCODING 270
SWIDTH 520 0
DWIDTH 10 0
BBX 11 22 0 -1
BITMAP
000100100000
007562781000
007068062000
001617350000
000707800000
00027A400000
000460000000
08C435000000
088006500000
087400580000
080560395000
2B74C5506500
160266600460
080340360350
070340498860
1B7378500650
1702D6707300
070460264000
170440650000
430166400000
287976000000
001250000000
ENDCHAR
STARTCHAR dcaron
ENCODING 271
SWIDTH 520 0
DWIDTH 10 0
BBX 11 22 0 -1
BITMAP
000100100000
007562781000
007068062000
001617350000
000707800000
00027A400000
000460000000
08C435000000
088006500000
087400580000
080560395000
2B74C5506500
160266600460
080340360350
070340498860
1B7378500650
1702D6707300
070460264000
170440650000
430166400000
287976000000
001250000000
ENDCHAR
STARTCHAR Dcroat
ENCODING 272
SWIDTH 669 0
DWIDTH 13 0
BBX 15 16 -1 -1
BITMAP
0000000460000000
000008C435000000
0000088006500000
0000087400580000
0000080560395000
00002B74C5506500
08667A6266600460
4400006540360350
3400006440498870
06767DC378500650
00001702D6707300
0000070460264000
0000160440650000
0000430166400000
0000287976000000
0000001250000000
ENDCHAR
STARTCHAR dcroat
ENCODING 273
SWIDTH 669 0
DWIDTH 13 0
BBX 15 16 -1 -1
BITMAP
0000000460000000
000008C435000000
0000088006500000
0000087400580000
0000080560395000
00002B74C5506500
08667A6266600460
4400006540360350
3400006440498870
06767DC378500650
00001702D6707300
0000070460264000
0000160440650000
0000430166400000
0000287976000000
0000001250000000
ENDCHAR
STARTCHAR Emacron
ENCODING 274
SWIDTH 490 0
DWIDTH 10 0
BBX 10 19 0 -1
BITMAP
0027777200
0070000700
0047777400
0000000000
08788A7784
0800752007
0802531107
0802A77773
2B73700000
1602A67400
0803410700
0703400700
1B73B78600
1702600000
07049B7781
1704470026
4301640026
2878777781
0010000000
ENDCHAR
STARTCHAR emacron
ENCODING 275
SWIDTH 490 0
DWIDTH 10 0
BBX 10 19 0 -1
BITMAP
0027777200
0070000700
0047777400
0000000000
08788A7784
0800752007
0802531107
0802A77773
2B73700000
1602A67400
0803410700
0703400700
1B73B78600
1702600000
07049B7781
1704470026
4301640026
2878777781
0010000000
ENDCHAR
STARTCHAR Ebreve
ENCODING 276
SWIDTH 490 0
DWIDTH 10 0
BBX 10 21 0 -1
BITMAP
0067406720
0070607070
007086A620
0061811C00
0028A78500
0000000000
08788A7784
0800752007
0802531107
0802A77773
2B73700000
1602A67400
0803410700
0703400700
1B73B78600
1702600000
07049B7781
1704470026
4301640026
2878777781
0010000000
ENDCHAR
STARTCHAR ebreve
ENCODING 277
SWIDTH 490 0
DWIDTH 10 0
BBX 10 21 0 -1
BITMAP
0067406720
0070607070
007086A620
0061811C00
0028A78500
0000000000
08788A7784
0800752007
0802531107
0802A77773
2B73700000
1602A67400
0803410700
0703400700
1B73B78600
1702600000
07049B7781
1704470026
4301640026
2878777781
0010000000
ENDCHAR
STARTCHAR Edotaccent
ENCODING 278
SWIDTH 490 0
DWIDTH 10 0
BBX 10 20 0 -1
BITMAP
0000010000
0006666000
0006124000
0004882000
0000000000
08788A7784
0800752007
0802531107
0802A77773
2B73700000
1602A67400
0803410700
0703400700
1B73B78600
1702600000
07049B7781
1704470026
4301640026
2878777781
0010000000
ENDCHAR
STARTCHAR edotaccent
ENCODING 279
SWIDTH 490 0
DWIDTH 10 0
BBX 10 20 0 -1
BITMAP
0000010000
0006666000
0006124000
0004882000
0000000000
08788A7784
0800752007
0802531107
0802A77773
2B73700000
1602A67400
0803410700
0703400700
1B73B78600
1702600000
07049B7781
1704470026
4301640026
2878777781
0010000000
ENDCHAR
STARTCHAR Eogonek
ENCODING 280
SWIDTH 490 0
DWIDTH 10 0
BBX 10 19 0 -5
BITMAP
08788A7784
0800752007
0802531107
0802A77773
2B73700000
1602A67400
0803410700
0703400700
1B73B78600
1702600000
07049B7781
1704470026
4301640026
2878799991
0010070700
0000085A50
0000029127
0000001872
0000000110
ENDCHAR
STARTCHAR eogonek
ENCODING 281
SWIDTH 490 0
DWIDTH 10 0
BBX 10 19 0 -5
BITMAP
08788A7784
0800752007
0802531107
0802A77773
2B73700000
1602A67400
0803410700
0703400700
1B73B78600
1702600000
07049B7781
1704470026
4301640026
2878799991
0010070700
0000085A50
0000029127
0000001872
0000000110
ENDCHAR
STARTCHAR Ecaron
ENCODING 282
SWIDTH 490 0
DWIDTH 10 0
BBX 10 21 0 -1
BITMAP
0001001100
0066808730
0062482350
0007081700
000524B100
00008A6000
08788A7784
0800752007
0802531107
0802A77773
2B73700000
1602A67400
0803410700
0703400700
1B73B78600
1702600000
07049B7781
1704470026
4301640026
2878777781
0010000000
ENDCHAR
STARTCHAR ecaron
ENCODING 283
SWIDTH 490 0
DWIDTH 10 0
BBX 10 21 0 -1
BITMAP
0001001100
0066808730
0062482350
0007081700
000524B100
00008A6000
08788A7784
0800752007
0802531107
0802A77773
2B73700000
1602A67400
0803410700
0703400700
1B73B78600
1702600000
07049B7781
1704470026
4301640026
2878777781
0010000000
ENDCHAR
STARTCHAR Gcircumflex
ENCODING 284
SWIDTH 557 0
DWIDTH 11 0
BBX 11 20 0 -1
BITMAP
000038A40000
000070690000
000533736000
000707707100
002682387000
037778A65600
070000712620
062111400530
0496A7777900
097570000100
070080003200
070070094560
080170070150
2A7470070160
1603400A7480
440769790070
800724370070
586912470080
093677887760
016200000000
ENDCHAR
STARTCHAR gcircumflex
ENCODING 285
SWIDTH 557 0
DWIDTH 11 0
BBX 11 20 0 -1
BITMAP
000038A40000
000070690000
000533736000
000707707100
002682387000
037778A65600
070000712620
062111400530
0496A7777900
097570000100
070080003200
070070094560
080170070150
2A7470070160
1603400A7480
440769790070
800724370070
586912470080
093677887760
016200000000
ENDCHAR
STARTCHAR Gbreve
ENCODING 286
SWIDTH 557 0
DWIDTH 11 0
BBX 11 20 0 -1
BITMAP
001771176000
003433435300
000728A57000
000717177000
0024B7791000
037778A65600
070000712620
062111400530
0496A7777900
097570000100
070080003200
070070094560
080170070150
2A7470070160
1603400A7480
440769790070
800724370070
586912470080
093677887760
016200000000
ENDCHAR
STARTCHAR gbreve
ENCODING 287
SWIDTH 557 0
DWIDTH 11 0
BBX 11 20 0 -1
BITMAP
001771176000
003433435300
000728A57000
000717177000
0024B7791000
037778A65600
070000712620
062111400530
0496A7777900
097570000100
070080003200
070070094560
080170070150
2A7470070160
1603400A7480
440769790070
800724370070
586912470080
093677887760
016200000000
ENDCHAR
STARTCHAR Gdotaccent
ENCODING 288
SWIDTH 557 0
DWIDTH 11 0
BBX 11 20 0 -1
BITMAP
000000100000
000047680000
000025060000
000009750000
002000000000
037778A65600
070000712620
062111400530
0496A7777900
097570000100
070080003200
070070094560
080170070150
2A7470070160
1603400A7480
440769790070
800724370070
586912470080
093677887760
016200000000
ENDCHAR
STARTCHAR gdotaccent
ENCODING 289
SWIDTH 557 0
DWIDTH 11 0
BBX 11 20 0 -1
BITMAP
000000100000
000047680000
000025060000
000009750000
002000000000
037778A65600
070000712620
062111400530
0496A7777900
097570000100
070080003200
070070094560
080170070150
2A7470070160
1603400A7480
440769790070
800724370070
586912470080
093677887760
016200000000
ENDCHAR
STARTCHAR Gcommaaccent
ENCODING 290
SWIDTH 557 0
DWIDTH 11 0
BBX 11 20 0 -5
BITMAP
002000000000
037778A65600
070000712620
062111400530
0496A7777900
097570000100
070080003200
070070094560
080170070150
2A7470070160
1603400A7480
440769790070
800724370070
586912470080
093677887760
016204000000
000054800000
000170800000
000817100000
000783000000
ENDCHAR
STARTCHAR gcommaaccent
ENCODING 291
SWIDTH 557 0
DWIDTH 11 0
BBX 11 20 0 -5
BITMAP
002000000000
037778A65600
070000712620
062111400530
0496A7777900
097570000100
070080003200
070070094560
080170070150
2A7470070160
1603400A7480
440769790070
800724370070
586912470080
093677887760
016204000000
000054800000
000170800000
000817100000
000783000000
ENDCHAR
STARTCHAR Hcircumflex
ENCODING 292
SWIDTH 611 0
DWIDTH 12 0
BBX 13 20 0 0
BITMAP
000028A4000000
00007069000000
00053372600000
00070770610000
00068338700000
00000000110000
08785007768100
08007008006100
08025007107000
08025007107000
2B737009768000
17026008008000
0803400700B500
08035009972710
1B74C862700520
17026600457900
07044679727000
1704A607008000
53017008008000
28783006786000
ENDCHAR
STARTCHAR hcircumflex
ENCODING 293
SWIDTH 611 0
DWIDTH 12 0
BBX 13 20 0 0
BITMAP
000028A4000000
00007069000000
00053372600000
00070770610000
00068338700000
00000000110000
08785007768100
08007008006100
08025007107000
08025007107000
2B737009768000
17026008008000
0803400700B500
08035009972710
1B74C862700520
17026600457900
07044679727000
1704A607008000
53017008008000
28783006786000
ENDCHAR
STARTCHAR Hbar
ENCODING 294
SWIDTH 706 0
DWIDTH 14 0
BBX 14 15 0 0
BITMAP
00000000012000
00777700576830
00700800710440
18A00B758A5854
52800C12172328
52B75800060007
18800A77877978
00700700430970
007008006A7344
00B74AA6370026
00701870044792
00701757983700
00701B61710700
02600800800520
01877500587800
ENDCHAR
STARTCHAR hbar
ENCODING 295
SWIDTH 706 0
DWIDTH 14 0
BBX 14 15 0 0
BITMAP
00000000012000
00777700576830
00700800710440
18A00B758A5854
52800C12172328
52B75800060007
18800A77877978
00700700430970
007008006A7344
00B74AA6370026
00701870044792
00701757983700
00701B61710700
02600800800520
01877500587800
ENDCHAR
STARTCHAR Itilde
ENCODING 296
SWIDTH 266 0
DWIDTH 5 0
BBX 9 20 -1 0
BITMAP
038A437800
0806970610
6337373500
7078068000
58237B5000
0000000000
0087850000
0080070000
0080250000
0080250000
02B7370000
0170260000
0080340000
0080340000
01B7470000
0170260000
0070430000
0170440000
0530170000
0287830000
ENDCHAR
STARTCHAR itilde
ENCODING 297
SWIDTH 266 0
DWIDTH 5 0
BBX 9 20 -1 0
BITMAP
038A437800
0806970610
6337373500
7078068000
58237B5000
0000000000
0087850000
0080070000
0080250000
0080250000
02B7370000
0170260000
0080340000
0080340000
01B7470000
0170260000
0070430000
0170440000
0530170000
0287830000
ENDCHAR
STARTCHAR Imacron
ENCODING 298
SWIDTH 266 0
DWIDTH 5 0
BBX 6 18 0 0
BITMAP
377771
700015
677782
000000
087850
080070
080250
080250
2B7370
170260
080340
080340
1B7470
170260
070430
170440
530170
287830
ENDCHAR
STARTCHAR imacron
ENCODING 299
SWIDTH 266 0
DWIDTH 5 0
BBX 6 18 0 0
BITMAP
377771
700015
677782
000000
087850
080070
080250
080250
2B7370
170260
080340
080340
1B7470
170260
070430
170440
530170
287830
ENDCHAR
STARTCHAR Ibreve
ENCODING 300
SWIDTH 266 0
DWIDTH 5 0
BBX 8 20 -1 0
BITMAP
17712760
44425262
0728A570
07171770
04B77910
00000000
00878500
00800700
00802500
00802500
02B73700
01702600
00803400
00803400
01B74700
01702600
00704300
01704400
05301700
02878300
ENDCHAR
STARTCHAR ibreve
ENCODING 301
SWIDTH 266 0
DWIDTH 5 0
BBX 8 20 -1 0
BITMAP
17712760
44425262
0728A570
07171770
04B77910
00000000
00878500
00800700
00802500
00802500
02B73700
01702600
00803400
00803400
01B74700
01702600
00704300
01704400
05301700
02878300
ENDCHAR
STARTCHAR Iogonek
ENCODING 302
SWIDTH 266 0
DWIDTH 5 0
BBX 5 19 0 -5
BITMAP
087850
080070
080250
080250
2B7370
170260
080340
080340
1B7470
170260
070430
170440
530170
2A7930
263500
809100
4B5650
046070
003810
ENDCHAR
STARTCHAR iogonek
ENCODING 303
SWIDTH 266 0
DWIDTH 5 0
BBX 5 19 0 -5
BITMAP
087850
080070
080250
080250
2B7370
170260
080340
080340
1B7470
170260
070430
170440
530170
2A7930
263500
809100
4B5650
046070
003810
ENDCHAR
STARTCHAR Idotaccent
ENCODING 304
SWIDTH 266 0
DWIDTH 5 0
BBX 5 19 0 0
BITMAP
001000
086830
070610
067800
000000
087850
080070
080250
080250
2B7370
170260
080340
080340
1B7470
170260
070430
170440
530170
287830
ENDCHAR
STARTCHAR dotlessi
ENCODING 305
SWIDTH 266 0
DWIDTH 5 0
BBX 5 14 0 0
BITMAP
087850
080070
080250
080250
2B7370
170260
080340
080340
1B7470
170260
070430
170440
530170
287830
ENDCHAR
STARTCHAR IJ
ENCODING 306
SWIDTH 750 0
DWIDTH 15 0
BBX 15 15 0 -1
BITMAP
0878500000297830
0800700000250340
0802500000160620
0802500000250510
2B73700000697540
1702600000530520
0803402400350700
0803457730340710
1B74780081596540
1702675018730620
0704306482C40800
1704400C10380800
5301700280044530
28783000260A8810
0000000006721000
ENDCHAR
STARTCHAR ij
ENCODING 307
SWIDTH 749 0
DWIDTH 15 0
BBX 15 15 0 -1
BITMAP
0878500000297830
0800700000250340
0802500000160620
0802500000250510
2B73700000697540
1702600000530520
0803402400350700
0803457730340710
1B74780081596540
1702675018730620
0704306482C40800
1704400C10380800
5301700280044530
28783000260A8810
0000000006721000
ENDCHAR
STARTCHAR Jcircumflex
ENCODING 308
SWIDTH 484 0
DWIDTH 10 0
BBX 12 20 -1 -1
BITMAP
00000029A500
000000706A00
000005428260
000007077062
000005832880
000000588800
000000700700
000000620700
000000710700
000000A76700
000000800800
003200700700
085800800700
440270975800
182038801800
008464C00800
003A00750800
000460080800
0000622C7700
000018710000
ENDCHAR
STARTCHAR jcircumflex
ENCODING 309
SWIDTH 482 0
DWIDTH 10 0
BBX 12 20 -1 -1
BITMAP
00000029A500
000000706A00
000005428260
000007077062
000005832880
000000588800
000000700700
000000620700
000000710700
000000A76700
000000800800
003200700700
085800800700
440270975800
182038801800
008464C00800
003A00750800
000460080800
0000622C7700
000018710000
ENDCHAR
STARTCHAR Kcommaaccent
ENCODING 310
SWIDTH 541 0
DWIDTH 11 0
BBX 12 19 0 -5
BITMAP
087850007500
080070053370
080250370081
080255900650
2B7388564500
1602C1039000
0803401B1000
070380972000
1B73A7418000
1702BC577100
070474702600
170440800810
430160520450
287840286700
001013011000
000074600000
000352600000
001717000000
001881000000
ENDCHAR
STARTCHAR kcommaaccent
ENCODING 311
SWIDTH 541 0
DWIDTH 11 0
BBX 12 19 0 -5
BITMAP
087850007500
080070053370
080250370081
080255900650
2B7388564500
1602C1039000
0803401B1000
070380972000
1B73A7418000
1702BC577100
070474702600
170440800810
430160520450
287840286700
001013011000
000074600000
000352600000
001717000000
001881000000
ENDCHAR
STARTCHAR kgreenlandic
ENCODING 312
SWIDTH 541 0
DWIDTH 11 0
BBX 12 15 0 -1
BITMAP
087850007500
080070053370
080250370081
080255900650
2B7388564500
1602C1039000
0803401B1000
070380972000
1B73A7418000
1702BC577100
070474702600
170440800810
430160520450
287840286700
001000011000
ENDCHAR
STARTCHAR Lacute
ENCODING 313
SWIDTH 467 0
DWIDTH 9 0
BBX 10 20 0 0
BITMAP
0000320000
0000864000
0006244000
0035350000
0028800000
0000000000
0878500000
0800700000
0802500000
0802500000
2B73700000
1702600000
0803400000
0803400000
1B74700000
1702600000
0704A87673
1704560007
5301840007
2878987784
ENDCHAR
STARTCHAR lacute
ENCODING 314
SWIDTH 467 0
DWIDTH 9 0
BBX 10 20 0 0
BITMAP
0000320000
0000864000
0006244000
0035350000
0028800000
0000000000
0878500000
0800700000
0802500000
0802500000
2B73700000
1702600000
0803400000
0803400000
1B74700000
1702600000
0704A87673
1704560007
5301840007
2878987784
ENDCHAR
STARTCHAR Lcommaaccent
ENCODING 315
SWIDTH 467 0
DWIDTH 9 0
BBX 10 19 0 -5
BITMAP
0878500000
0800700000
0802500000
0802500000
2B73700000
1702600000
0803400000
0803400000
1B74700000
1702600000
0704A87673
1704560007
5301840007
2878987784
0000400000
0006480000
0017080000
0081710000
0078300000
ENDCHAR
STARTCHAR lcommaaccent
ENCODING 316
SWIDTH 467 0
DWIDTH 9 0
BBX 10 19 0 -5
BITMAP
0878500000
0800700000
0802500000
0802500000
2B73700000
1702600000
0803400000
0803400000
1B74700000
1702600000
0704A87673
1704560007
5301840007
2878987784
0000400000
0006480000
0017080000
0081710000
0078300000
ENDCHAR
STARTCHAR Lcaron
ENCODING 317
SWIDTH 467 0
DWIDTH 9 0
BBX 10 15 0 0
BITMAP
0000003860
0878508080
0800763530
0802583600
0802515000
2B73700000
1702600000
0803400000
0803400000
1B74700000
1702600000
0704A87673
1704560007
5301840007
2878987784
ENDCHAR
STARTCHAR lcaron
ENCODING 318
SWIDTH 467 0
DWIDTH 9 0
BBX 10 15 0 0
BITMAP
0000003860
0878508080
0800763530
0802583600
0802515000
2B73700000
1702600000
0803400000
0803400000
1B74700000
1702600000
0704A87673
1704560007
5301840007
2878987784
ENDCHAR
STARTCHAR Ldot
ENCODING 319
SWIDTH 611 0
DWIDTH 12 0
BBX 12 14 0 0
BITMAP
087850000000
080070000000
080250000000
080250000000
2B7370000000
170260004775
080340005107
080340005536
1B7470000330
170260000000
0704A8767300
170456000700
530184000700
287898778400
ENDCHAR
STARTCHAR ldotaccent
ENCODING 320
SWIDTH 611 0
DWIDTH 12 0
BBX 12 14 0 0
BITMAP
087850000000
080070000000
080250000000
080250000000
2B7370000000
170260004775
080340005107
080340005536
1B7470000330
170260000000
0704A8767300
170456000700
530184000700
287898778400
ENDCHAR
STARTCHAR Lslash
ENCODING 321
SWIDTH 505 0
DWIDTH 10 0
BBX 12 15 -1 -1
BITMAP
002978300000
002503500000
000705200000
002605200000
005975410000
027305891000
285507036000
442506582000
198965510000
016305300000
003407987780
004307350053
007004540052
004879877770
000010000000
ENDCHAR
STARTCHAR lslash
ENCODING 322
SWIDTH 505 0
DWIDTH 10 0
BBX 12 15 -1 -1
BITMAP
002978300000
002503500000
000705200000
002605200000
005975410000
027305891000
285507036000
442506582000
198965510000
016305300000
003407987780
004307350053
007004540052
004879877770
000010000000
ENDCHAR
STARTCHAR Nacute
ENCODING 323
SWIDTH 598 0
DWIDTH 12 0
BBX 12 20 0 -1
BITMAP
000000041000
000000458000
000000807100
000007172000
000006850000
088892028782
080087043043
080258025071
080254534070
2B74A5878762
160170681071
0803701B3070
0803C1055080
1A639774A662
17036B108171
070444503570
170440800790
440160700871
28684038D881
001000000000
ENDCHAR
STARTCHAR nacute
ENCODING 324
SWIDTH 598 0
DWIDTH 12 0
BBX 12 20 0 -1
BITMAP
000000041000
000000458000
000000807100
000007172000
000006850000
088892028782
080087043043
080258025071
080254534070
2B74A5878762
160170681071
0803701B3070
0803C1055080
1A639774A662
17036B108171
070444503570
170440800790
440160700871
28684038D881
001000000000
ENDCHAR
STARTCHAR Ncommaaccent
ENCODING 325
SWIDTH 598 0
DWIDTH 12 0
BBX 12 19 0 -5
BITMAP
088892028782
080087043043
080258025071
080254534070
2B74A5878762
160170681071
0803701B3070
0803C1055080
1A639774A662
17036B108171
070444503570
170440800790
440160700871
28684038D881
001003100000
000027710000
000080620000
000635300000
000576000000
ENDCHAR
STARTCHAR ncommaaccent
ENCODING 326
SWIDTH 598 0
DWIDTH 12 0
BBX 12 19 0 -5
BITMAP
088892028782
080087043043
080258025071
080254534070
2B74A5878762
160170681071
0803701B3070
0803C1055080
1A639774A662
17036B108171
070444503570
170440800790
440160700871
28684038D881
001003100000
000027710000
000080620000
000635300000
000576000000
ENDCHAR
STARTCHAR Ncaron
ENCODING 327
SWIDTH 598 0
DWIDTH 12 0
BBX 12 21 0 -1
BITMAP
000020010000
000757188200
000716815300
000171826000
000071690000
000028A40000
088892028782
080087043043
080258025071
080254534070
2B74A5878762
160170681071
0803701B3070
0803C1055080
1A639774A662
17036B108171
070444503570
170440800790
440160700871
28684038D881
001000000000
ENDCHAR
STARTCHAR ncaron
ENCODING 328
SWIDTH 598 0
DWIDTH 12 0
BBX 12 21 0 -1
BITMAP
000020010000
000757188200
000716815300
000171826000
000071690000
000028A40000
088892028782
080087043043
080258025071
080254534070
2B74A5878762
160170681071
0803701B3070
0803C1055080
1A639774A662
17036B108171
070444503570
170440800790
440160700871
28684038D881
001000000000
ENDCHAR
STARTCHAR napostrophe
ENCODING 329
SWIDTH 807 0
DWIDTH 16 0
BBX 16 15 0 -1
BITMAP
0386078894018784
0808080088016026
6253080078108043
9450080072717043
15000B759675A755
0000080080384044
00000800A0096052
00000800C3037052
00000A6488669645
0000080179207244
0000070161701761
00000801708005A1
0000260080530764
000018775018C982
0000001000000100
ENDCHAR
STARTCHAR Eng
ENCODING 330
SWIDTH 595 0
DWIDTH 12 0
BBX 12 20 0 -6
BITMAP
088892007850
070087054064
070258034061
070254535070
2B73A5843070
1601706A9872
0703701D1071
0703C1054080
1A63A7648080
17026B108070
070444503A72
170440800790
440160700880
286840398270
0010013A8670
004778930792
007000700540
007001577700
006686400000
000200000000
ENDCHAR
STARTCHAR eng
ENCODING 331
SWIDTH 595 0
DWIDTH 12 0
BBX 12 20 0 -6
BITMAP
088892007850
070087054064
070258034061
070254535070
2B73A5843070
1601706A9872
0703701D1071
0703C1054080
1A63A7648080
17026B108070
070444503A72
170440800790
440160700880
286840398270
0010013A8670
004778930792
007000700540
007001577700
006686400000
000200000000
ENDCHAR
STARTCHAR Omacron
ENCODING 332
SWIDTH 612 0
DWIDTH 12 0
BBX 12 18 0 -1
BITMAP
000067774000
000330007000
002287777000
037778A67940
0700007126A0
0621114005A0
0496A7788970
097570067772
070080074062
070070025061
080170007044
2A747001A647
160340009217
440758979696
800720700078
586910602389
094687776A82
016200000000
ENDCHAR
STARTCHAR omacron
ENCODING 333
SWIDTH 612 0
DWIDTH 12 0
BBX 12 18 0 -1
BITMAP
000067774000
000330007000
002287777000
037778A67940
0700007126A0
0621114005A0
0496A7788970
097570067772
070080074062
070070025061
080170007044
2A747001A647
160340009217
440758979696
800720700078
586910602389
094687776A82
016200000000
ENDCHAR
STARTCHAR Obreve
ENCODING 334
SWIDTH 612 0
DWIDTH 12 0
BBX 12 20 0 -1
BITMAP
000674067200
000706070700
0007086A6200
00061811C000
00228A785000
037778A67940
0700007126A0
0621114005A0
0496A7788970
097570067772
070080074062
070070025061
080170007044
2A747001A647
160340009217
440758979696
800720700078
586910602389
094687776A82
016200000000
ENDCHAR
STARTCHAR obreve
ENCODING 335
SWIDTH 612 0
DWIDTH 12 0
BBX 12 20 0 -1
BITMAP
000674067200
000706070700
0007086A6200
00061811C000
00228A785000
037778A67940
0700007126A0
0621114005A0
0496A7788970
097570067772
070080074062
070070025061
080170007044
2A747001A647
160340009217
440758979696
800720700078
586910602389
094687776A82
016200000000
ENDCHAR
STARTCHAR Ohungarumlaut
ENCODING 336
SWIDTH 612 0
DWIDTH 12 0
BBX 12 21 0 -1
BITMAP
000001400410
000006474580
000026188081
000080871720
000079268400
002000000000
037778A67940
0700007126A0
0621114005A0
0496A7788970
097570067772
070080074062
070070025061
080170007044
2A747001A647
160340009217
440758979696
800720700078
586910602389
094687776A82
016200000000
ENDCHAR
STARTCHAR ohungarumlaut
ENCODING 337
SWIDTH 612 0
DWIDTH 12 0
BBX 12 21 0 -1
BITMAP
000001400410
000006474580
000026188081
000080871720
000079268400
002000000000
037778A67940
0700007126A0
0621114005A0
0496A7788970
097570067772
070080074062
070070025061
080170007044
2A747001A647
160340009217
440758979696
800720700078
586910602389
094687776A82
016200000000
ENDCHAR
STARTCHAR OE
ENCODING 338
SWIDTH 831 0
DWIDTH 17 0
BBX 17 16 0 -1
BITMAP
002000000000000000
03777896CD88A77920
070000712645700070
062111400583501170
0496A7779968777810
097570059754000000
070080044048682000
070070026062107000
080170025062007000
2A747004965A784000
160340045153000000
440769887877B77700
800722500771700530
586910513844400530
09367787CA87777800
016200000100000000
ENDCHAR
STARTCHAR oe
ENCODING 339
SWIDTH 831 0
DWIDTH 17 0
BBX 17 16 0 -1
BITMAP
002000000000000000
03777896CD88A77920
070000712645700070
062111400583501170
0496A7779968777810
097570059754000000
070080044048682000
070070026062107000
080170025062007000
2A747004965A784000
160340045153000000
440769887877B77700
800722500771700530
586910513844400530
09367787CA87777800
016200000100000000
ENDCHAR
STARTCHAR Racute
ENCODING 340
SWIDTH 532 0
DWIDTH 11 0
BBX 11 20 0 -1
BITMAP
000000140000
000000747000
000003527000
000018170000
002618910000
069286300000
0B4001A82000
098300716840
0816A6300070
1952638A3630
282275715920
0703BA755710
080477083000
182296026000
29549A237200
070491B31700
170430720530
340250070080
462560074730
036300013100
ENDCHAR
STARTCHAR racute
ENCODING 341
SWIDTH 532 0
DWIDTH 11 0
BBX 11 20 0 -1
BITMAP
000000140000
000000747000
000003527000
000018170000
002618910000
069286300000
0B4001A82000
098300716840
0816A6300070
1952638A3630
282275715920
0703BA755710
080477083000
182296026000
29549A237200
070491B31700
170430720530
340250070080
462560074730
036300013100
ENDCHAR
STARTCHAR Rcommaaccent
ENCODING 342
SWIDTH 532 0
DWIDTH 11 0
BBX 11 20 0 -5
BITMAP
002600000000
069286300000
0B4001A82000
098300716840
0816A6300070
1952638A3630
282275715920
0703BA755710
080477083000
182296026000
29549A237200
070491B31700
170430720530
340250070080
462560074730
036323013100
000085500000
000533500000
002626000000
001880000000
ENDCHAR
STARTCHAR rcommaaccent
ENCODING 343
SWIDTH 532 0
DWIDTH 11 0
BBX 11 20 0 -5
BITMAP
002600000000
069286300000
0B4001A82000
098300716840
0816A6300070
1952638A3630
282275715920
0703BA755710
080477083000
182296026000
29549A237200
070491B31700
170430720530
340250070080
462560074730
036323013100
000085500000
000533500000
002626000000
001880000000
ENDCHAR
STARTCHAR Rcaron
ENCODING 344
SWIDTH 532 0
DWIDTH 11 0
BBX 11 22 0 -1
BITMAP
000100110000
004780865000
004428417000
000708180000
000351B30000
000079800000
002600000000
069286300000
0B4001A82000
098300716840
0816A6300070
1952638A3630
282275715920
0703BA755710
080477083000
182296026000
29549A237200
070491B31700
170430720530
340250070080
462560074730
036300013100
ENDCHAR
STARTCHAR rcaron
ENCODING 345
SWIDTH 532 0
DWIDTH 11 0
BBX 11 22 0 -1
BITMAP
000100110000
004780865000
004428417000
000708180000
000351B30000
000079800000
002600000000
069286300000
0B4001A82000
098300716840
0816A6300070
1952638A3630
282275715920
0703BA755710
080477083000
182296026000
29549A237200
070491B31700
170430720530
340250070080
462560074730
036300013100
ENDCHAR
STARTCHAR Sacute
ENCODING 346
SWIDTH 442 0
DWIDTH 9 0
BBX 9 21 0 -1
BITMAP
0000041000
0000458000
0000807100
0007172000
0006850000
0000001400
0777B77550
4A75610080
7207347760
6305A40000
0800710000
0367360000
00B0080000
0036018000
0007166300
0002B10800
1338B30550
8442680080
7000684840
7477765400
0400000000
ENDCHAR
STARTCHAR sacute
ENCODING 347
SWIDTH 442 0
DWIDTH 9 0
BBX 9 21 0 -1
BITMAP
0000041000
0000458000
0000807100
0007172000
0006850000
0000001400
0777B77550
4A75610080
7207347760
6305A40000
0800710000
0367360000
00B0080000
0036018000
0007166300
0002B10800
1338B30550
8442680080
7000684840
7477765400
0400000000
ENDCHAR
STARTCHAR Scircumflex
ENCODING 348
SWIDTH 442 0
DWIDTH 9 0
BBX 9 21 0 -1
BITMAP
0008890000
00431B3000
0170A08000
0705632600
0376088200
0000001400
0777B77550
4A75610080
7207347760
6305A40000
0800710000
0367360000
00B0080000
0036018000
0007166300
0002B10800
1338B30550
8442680080
7000684840
7477765400
0400000000
ENDCHAR
STARTCHAR scircumflex
ENCODING 349
SWIDTH 442 0
DWIDTH 9 0
BBX 9 21 0 -1
BITMAP
0008890000
00431B3000
0170A08000
0705632600
0376088200
0000001400
0777B77550
4A75610080
7207347760
6305A40000
0800710000
0367360000
00B0080000
0036018000
0007166300
0002B10800
1338B30550
8442680080
7000684840
7477765400
0400000000
ENDCHAR
STARTCHAR Scedilla
ENCODING 350
SWIDTH 442 0
DWIDTH 9 0
BBX 9 20 0 -5
BITMAP
0000001400
0777B77550
4A75610080
7207347760
6305A40000
0800710000
0367360000
00B0080000
0036018000
0007166300
0002B10800
1338B30550
8442680080
7000684840
7477979400
0400716000
0057927000
02504C1000
0087620000
0010000000
ENDCHAR
STARTCHAR scedilla
ENCODING 351
SWIDTH 442 0
DWIDTH 9 0
BBX 9 20 0 -5
BITMAP
0000001400
0777B77550
4A75610080
7207347760
6305A40000
0800710000
0367360000
00B0080000
0036018000
0007166300
0002B10800
1338B30550
8442680080
7000684840
7477979400
0400716000
0057927000
02504C1000
0087620000
0010000000
ENDCHAR
STARTCHAR Scaron
ENCODING 352
SWIDTH 442 0
DWIDTH 9 0
BBX 9 22 0 -1
BITMAP
0010011000
0568087400
0524822600
0070818000
00523B1000
0008A60000
0000001400
0777B77550
4A75610080
7207347760
6305A40000
0800710000
0367360000
00B0080000
0036018000
0007166300
0002B10800
1338B30550
8442680080
7000684840
7477765400
0400000000
ENDCHAR
STARTCHAR scaron
ENCODING 353
SWIDTH 442 0
DWIDTH 9 0
BBX 9 22 0 -1
BITMAP
0010011000
0568087400
0524822600
0070818000
00523B1000
0008A60000
0000001400
0777B77550
4A75610080
7207347760
6305A40000
0800710000
0367360000
00B0080000
0036018000
0007166300
0002B10800
1338B30550
8442680080
7000684840
7477765400
0400000000
ENDCHAR
STARTCHAR Tcommaaccent
ENCODING 354
SWIDTH 453 0
DWIDTH 9 0
BBX 11 20 -1 -5
BITMAP
010000000000
08777B777900
260005200520
171334343710
0464A6854400
000171240000
000496460000
000160430000
000070520000
000272350000
000385560000
000160530000
000250520000
000620350000
000386830000
000032000000
000177200000
000715300000
005444000000
004770000000
ENDCHAR
STARTCHAR tcommaaccent
ENCODING 355
SWIDTH 453 0
DWIDTH 9 0
BBX 11 20 -1 -5
BITMAP
010000000000
08777B777900
260005200520
171334343710
0464A6854400
000171240000
000496460000
000160430000
000070520000
000272350000
000385560000
000160530000
000250520000
000620350000
000386830000
000032000000
000177200000
000715300000
005444000000
004770000000
ENDCHAR
STARTCHAR Tcaron
ENCODING 356
SWIDTH 453 0
DWIDTH 9 0
BBX 11 22 -1 -1
BITMAP
000110010000
002872757000
002607608000
000626272000
000070A50000
000068A00000
010000000000
08777B777900
260005200520
171334343710
0464A6854400
000171240000
000496460000
000160430000
000070520000
000272350000
000385560000
000160530000
000250520000
000620350000
000386830000
000001000000
ENDCHAR
STARTCHAR tcaron
ENCODING 357
SWIDTH 453 0
DWIDTH 9 0
BBX 11 22 -1 -1
BITMAP
000110010000
002872757000
002607608000
000626272000
000070A50000
000068A00000
010000000000
08777B777900
260005200520
171334343710
0464A6854400
000171240000
000496460000
000160430000
000070520000
000272350000
000385560000
000160530000
000250520000
000620350000
000386830000
000001000000
ENDCHAR
STARTCHAR Tbar
ENCODING 358
SWIDTH 455 0
DWIDTH 9 0
BBX 11 15 -1 -1
BITMAP
07777A777800
160005200520
170004110620
0677A7987600
000070340000
0003A7460000
006896895000
016000007000
007011008000
0048A8995000
000160430000
000160520000
000430340000
000473740000
000014100000
ENDCHAR
STARTCHAR tbar
ENCODING 359
SWIDTH 455 0
DWIDTH 9 0
BBX 11 15 -1 -1
BITMAP
07777A777800
160005200520
170004110620
0677A7987600
000070340000
0003A7460000
006896895000
016000007000
007011008000
0048A8995000
000160430000
000160520000
000430340000
000473740000
000014100000
ENDCHAR
STARTCHAR Utilde
ENCODING 360
SWIDTH 583 0
DWIDTH 12 0
BBX 12 20 0 -1
BITMAP
000077B07650
000260966070
000808282710
005335608600
00177077C100
058770187850
071071170170
071070070260
070080070170
0B75800B7480
070070080080
070250080080
070350080080
396460096680
250430083380
440769785880
8007371004A0
753913224963
09567778A981
017300000000
ENDCHAR
STARTCHAR utilde
ENCODING 361
SWIDTH 583 0
DWIDTH 12 0
BBX 12 20 0 -1
BITMAP
000077B07650
000260966070
000808282710
005335608600
00177077C100
058770187850
071071170170
071070070260
070080070170
0B75800B7480
070070080080
070250080080
070350080080
396460096680
250430083380
440769785880
8007371004A0
753913224963
09567778A981
017300000000
ENDCHAR
STARTCHAR Umacron
ENCODING 362
SWIDTH 583 0
DWIDTH 12 0
BBX 12 19 0 -1
BITMAP
000177772000
000600007000
000477775000
000000000000
058770187850
071071170170
071070070260
070080070170
0B75800B7480
070070080080
070250080080
070350080080
396460096680
250430083380
440769785880
8007371004A0
753913224963
09567778A981
017300000000
ENDCHAR
STARTCHAR umacron
ENCODING 363
SWIDTH 583 0
DWIDTH 12 0
BBX 12 19 0 -1
BITMAP
000177772000
000600007000
000477775000
000000000000
058770187850
071071170170
071070070260
070080070170
0B75800B7480
070070080080
070250080080
070350080080
396460096680
250430083380
440769785880
8007371004A0
753913224963
09567778A981
017300000000
ENDCHAR
STARTCHAR Ubreve
ENCODING 364
SWIDTH 583 0
DWIDTH 12 0
BBX 12 21 0 -1
BITMAP
002770275000
005251617100
001647A47000
000726186000
0005B7781000
000000000000
058770187850
071071170170
071070070260
070080070170
0B75800B7480
070070080080
070250080080
070350080080
396460096680
250430083380
440769785880
8007371004A0
753913224963
09567778A981
017300000000
ENDCHAR
STARTCHAR ubreve
ENCODING 365
SWIDTH 583 0
DWIDTH 12 0
BBX 12 21 0 -1
BITMAP
002770275000
005251617100
001647A47000
000726186000
0005B7781000
000000000000
058770187850
071071170170
071070070260
070080070170
0B75800B7480
070070080080
070250080080
070350080080
396460096680
250430083380
440769785880
8007371004A0
753913224963
09567778A981
017300000000
ENDCHAR
STARTCHAR Uring
ENCODING 366
SWIDTH 583 0
DWIDTH 12 0
BBX 12 21 0 -1
BITMAP
000067760000
000261861000
001807717000
001759A17000
000840177000
000577772000
058770187850
071071170170
071070070260
070080070170
0B75800B7480
070070080080
070250080080
070350080080
396460096680
250430083380
440769785880
8007371004A0
753913224963
09567778A981
017300000000
ENDCHAR
STARTCHAR uring
ENCODING 367
SWIDTH 583 0
DWIDTH 12 0
BBX 12 21 0 -1
BITMAP
000067760000
000261861000
001807717000
001759A17000
000840177000
000577772000
058770187850
071071170170
071070070260
070080070170
0B75800B7480
070070080080
070250080080
070350080080
396460096680
250430083380
440769785880
8007371004A0
753913224963
09567778A981
017300000000
ENDCHAR
STARTCHAR Uhungarumlaut
ENCODING 368
SWIDTH 583 0
DWIDTH 12 0
BBX 12 21 0 -1
BITMAP
000004103200
000026828630
000080691540
000626644500
000576387000
000000000000
058770187850
071071170170
071070070260
070080070170
0B75800B7480
070070080080
070250080080
070350080080
396460096680
250430083380
440769785880
8007371004A0
753913224963
09567778A981
017300000000
ENDCHAR
STARTCHAR uhungarumlaut
ENCODING 369
SWIDTH 583 0
DWIDTH 12 0
BBX 12 21 0 -1
BITMAP
000004103200
000026828630
000080691540
000626644500
000576387000
000000000000
058770187850
071071170170
071070070260
070080070170
0B75800B7480
070070080080
070250080080
070350080080
396460096680
250430083380
440769785880
8007371004A0
753913224963
09567778A981
017300000000
ENDCHAR
STARTCHAR Uogonek
ENCODING 370
SWIDTH 583 0
DWIDTH 12 0
BBX 12 19 0 -5
BITMAP
058770187850
071071170170
071070070260
070080070170
0B75800B7480
070070080080
070250080080
070350080080
396460096680
250430083380
440769785880
8007371004A0
753913224963
09567779A981
017300071700
000000171900
0000000A8472
000000017343
000000000650
ENDCHAR
STARTCHAR uogonek
ENCODING 371
SWIDTH 583 0
DWIDTH 12 0
BBX 12 19 0 -5
BITMAP
058770187850
071071170170
071070070260
070080070170
0B75800B7480
070070080080
070250080080
070350080080
396460096680
250430083380
440769785880
8007371004A0
753913224963
09567779A981
017300071700
000000171900
0000000A8472
000000017343
000000000650
ENDCHAR
STARTCHAR Wcircumflex
ENCODING 372
SWIDTH 735 0
DWIDTH 15 0
BBX 15 19 0 -1
BITMAP
0000009970000000
00000623B1000000
0000261908000000
0000706623500000
1672475088277500
9218005770260460
8007036061340530
6108068043620700
44255BB017B62700
3A42777857813800
0700772506702600
0710840703605200
043187687B516100
02A6800A37367100
0080702677008000
0072604378017000
00582042A4025000
0046A98138355000
0004510001530000
ENDCHAR
STARTCHAR wcircumflex
ENCODING 373
SWIDTH 735 0
DWIDTH 15 0
BBX 15 19 0 -1
BITMAP
0000009970000000
00000623B1000000
0000261908000000
0000706623500000
1672475088277500
9218005770260460
8007036061340530
6108068043620700
44255BB017B62700
3A42777857813800
0700772506702600
0710840703605200
043187687B516100
02A6800A37367100
0080702677008000
0072604378017000
00582042A4025000
0046A98138355000
0004510001530000
ENDCHAR
STARTCHAR Ycircumflex
ENCODING 374
SWIDTH 484 0
DWIDTH 10 0
BBX 12 19 -1 0
BITMAP
000067B10000
000070870000
000716453000
002516708000
000780676000
017400028710
181810061191
630270070081
072036440440
008266B82700
005903503700
000727107100
000087007000
000077643000
000080181000
000440350000
001800800000
001900700000
000288400000
ENDCHAR
STARTCHAR ycircumflex
ENCODING 375
SWIDTH 484 0
DWIDTH 10 0
BBX 12 19 -1 0
BITMAP
000067B10000
000070870000
000716453000
002516708000
000780676000
017400028710
181810061191
630270070081
072036440440
008266B82700
005903503700
000727107100
000087007000
000077643000
000080181000
000440350000
001800800000
001900700000
000288400000
ENDCHAR
STARTCHAR Ydieresis
ENCODING 376
SWIDTH 484 0
DWIDTH 10 0
BBX 12 18 -1 0
BITMAP
000010000000
005667768300
004306706100
002874678000
017400028710
181810061191
630270070081
072036440440
008266B82700
005903503700
000727107100
000087007000
000077643000
000080181000
000440350000
001800800000
001900700000
000288400000
ENDCHAR
STARTCHAR Zacute
ENCODING 377
SWIDTH 458 0
DWIDTH 9 0
BBX 11 19 -1 0
BITMAP
000000230000
000000846000
000004436000
000027170000
000018800000
00777A778200
016005201900
017004122C20
00677A759800
00002C508000
000061347000
000180081000
000810630000
003981800000
008016500000
05501C778100
270086101600
091074101600
019A87778100
ENDCHAR
STARTCHAR zacute
ENCODING 378
SWIDTH 458 0
DWIDTH 9 0
BBX 11 19 -1 0
BITMAP
000000230000
000000846000
000004436000
000027170000
000018800000
00777A778200
016005201900
017004122C20
00677A759800
00002C508000
000061347000
000180081000
000810630000
003981800000
008016500000
05501C778100
270086101600
091074101600
019A87778100
ENDCHAR
STARTCHAR Zdotaccent
ENCODING 379
SWIDTH 458 0
DWIDTH 9 0
BBX 11 18 -1 0
BITMAP
000086830000
000070510000
000067810000
000000000000
00777A778200
016005201900
017004122C20
00677A759800
00002C508000
000061347000
000180081000
000810630000
003981800000
008016500000
05501C778100
270086101600
091074101600
019A87778100
ENDCHAR
STARTCHAR zdotaccent
ENCODING 380
SWIDTH 458 0
DWIDTH 9 0
BBX 11 18 -1 0
BITMAP
000086830000
000070510000
000067810000
000000000000
00777A778200
016005201900
017004122C20
00677A759800
00002C508000
000061347000
000180081000
000810630000
003981800000
008016500000
05501C778100
270086101600
091074101600
019A87778100
ENDCHAR
STARTCHAR Zcaron
ENCODING 381
SWIDTH 458 0
DWIDTH 9 0
BBX 11 20 -1 0
BITMAP
000110010000
002881766000
002518608000
000616271000
000160A50000
000068900000
00777A778200
016005201900
017004122C20
00677A759800
00002C508000
000061347000
000180081000
000810630000
003981800000
008016500000
05501C778100
270086101600
091074101600
019A87778100
ENDCHAR
STARTCHAR zcaron
ENCODING 382
SWIDTH 458 0
DWIDTH 9 0
BBX 11 20 -1 0
BITMAP
000110010000
002881766000
002518608000
000616271000
000160A50000
000068900000
00777A778200
016005201900
017004122C20
00677A759800
00002C508000
000061347000
000180081000
000810630000
003981800000
008016500000
05501C778100
270086101600
091074101600
019A87778100
ENDCHAR
STARTCHAR AEacute
ENCODING 508
SWIDTH 797 0
DWIDTH 16 0
BBX 17 21 -1 -1
BITMAP
000000000032000000
000000000177200000
000000000715300000
000000005454000000
000000004870000000
000000000000000000
000000457889987760
000000739107250070
000005203607231080
00001800A00B777740
00009815C748000000
00007058800B675000
000620458016107000
001700808007007000
00885487B74A777000
008038108017000000
06205A77801AB77820
450081007016610070
370260025008400070
048820018788777820
000000000100000000
ENDCHAR
STARTCHAR aeacute
ENCODING 509
SWIDTH 797 0
DWIDTH 16 0
BBX 17 21 -1 -1
BITMAP
000000000032000000
000000000177200000
000000000715300000
000000005454000000
000000004870000000
000000000000000000
000000457889987760
000000739107250070
000005203607231080
00001800A00B777740
00009815C748000000
00007058800B675000
000620458016107000
001700808007007000
00885487B74A777000
008038108017000000
06205A77801AB77820
450081007016610070
370260025008400070
048820018788777820
000000000100000000
ENDCHAR
STARTCHAR Oslashacute
ENCODING 510
SWIDTH 612 0
DWIDTH 12 0
BBX 12 21 0 -1
BITMAP
000000032000
000000277200
000000806200
000006353000
000004760000
002000000000
037778A67950
070000726082
062111471062
0496A7A504B0
097571C40A72
070086156362
070087018061
0800C1087044
2A779036A647
160838709217
444404B79696
827017700078
590071602389
0810B7776A82
018820000000
ENDCHAR
STARTCHAR oslashacute
ENCODING 511
SWIDTH 612 0
DWIDTH 12 0
BBX 12 21 0 -1
BITMAP
000000032000
000000277200
000000806200
000006353000
000004760000
002000000000
037778A67950
070000726082
062111471062
0496A7A504B0
097571C40A72
070086156362
070087018061
0800C1087044
2A779036A647
160838709217
444404B79696
827017700078
590071602389
0810B7776A82
018820000000
ENDCHAR
STARTCHAR dotlessj
ENCODING 567
SWIDTH 482 0
DWIDTH 10 0
BBX 10 15 -1 -1
BITMAP
0000005888
0000007007
0000006207
0000007107
000000A767
0000008008
0032007007
0858008007
4402709758
1820388018
008464C008
003A007508
0004600808
0000622C77
0000187100
ENDCHAR
STARTCHAR circumflex
ENCODING 710
SWIDTH 308 0
DWIDTH 6 0
BBX 7 5 0 15
BITMAP
038A4000
07069000
53373600
70770710
68238700
ENDCHAR
STARTCHAR caron
ENCODING 711
SWIDTH 310 0
DWIDTH 6 0
BBX 7 6 0 15
BITMAP
01002000
85637800
80670710
25264400
07088000
037A3000
ENDCHAR
STARTCHAR breve
ENCODING 728
SWIDTH 333 0
DWIDTH 7 0
BBX 7 5 0 15
BITMAP
67406720
70607170
7086A620
61812C00
28978400
ENDCHAR
STARTCHAR dotaccent
ENCODING 729
SWIDTH 166 0
DWIDTH 3 0
BBX 4 4 0 15
BITMAP
0100
8683
7061
6780
ENDCHAR
STARTCHAR ring
ENCODING 730
SWIDTH 309 0
DWIDTH 6 0
BBX 7 6 0 15
BITMAP
04777000
08083400
72590800
83A84610
74006900
37777400
ENDCHAR
STARTCHAR ogonek
ENCODING 731
SWIDTH 226 0
DWIDTH 5 0
BBX 5 7 0 -5
BITMAP
055000
073600
525200
809000
794730
065260
005700
ENDCHAR
STARTCHAR tilde
ENCODING 732
SWIDTH 410 0
DWIDTH 8 0
BBX 9 5 0 15
BITMAP
038A437800
0806970610
6337373500
7078068000
58237B5000
ENDCHAR
STARTCHAR hungarumlaut
ENCODING 733
SWIDTH 361 0
DWIDTH 7 0
BBX 8 5 0 15
BITMAP
00400410
06483681
17188071
80872620
78358500
ENDCHAR
STARTCHAR uni0312
ENCODING 786
SWIDTH 202 0
DWIDTH 4 0
BBX 4 5 0 9
BITMAP
0386
0808
6253
9450
1500
ENDCHAR
STARTCHAR uni0315
ENCODING 789
SWIDTH 202 0
DWIDTH 4 0
BBX 4 5 0 9
BITMAP
0386
0808
6253
9450
1500
ENDCHAR
STARTCHAR uni0326
ENCODING 806
SWIDTH 201 0
DWIDTH 4 0
BBX 4 5 0 -5
BITMAP
0040
0648
1708
8171
7830
ENDCHAR
STARTCHAR Wgrave
ENCODING 7808
SWIDTH 735 0
DWIDTH 15 0
BBX 15 20 0 -1
BITMAP
0000016300000000
0000182700000000
0000080700000000
0000026350000000
0000007730000000
1672000000077500
9218005770260460
8007036061340530
6108068043620700
44255BB017B62700
3A42777857813800
0700772506702600
0710840703605200
043187687B516100
02A6800A37367100
0080702677008000
0072604378017000
00582042A4025000
0046A98138355000
0004510001530000
ENDCHAR
STARTCHAR wgrave
ENCODING 7809
SWIDTH 735 0
DWIDTH 15 0
BBX 15 20 0 -1
BITMAP
0000016300000000
0000182700000000
0000080700000000
0000026350000000
0000007730000000
1672000000077500
9218005770260460
8007036061340530
6108068043620700
44255BB017B62700
3A42777857813800
0700772506702600
0710840703605200
043187687B516100
02A6800A37367100
0080702677008000
0072604378017000
00582042A4025000
0046A98138355000
0004510001530000
ENDCHAR
STARTCHAR Wacute
ENCODING 7810
SWIDTH 735 0
DWIDTH 15 0
BBX 15 20 0 -1
BITMAP
0000000023000000
0000000085400000
0000000624500000
0000003635000000
0000002880000000
1672000000077500
9218005770260460
8007036061340530
6108068043620700
44255BB017B62700
3A42777857813800
0700772506702600
0710840703605200
043187687B516100
02A6800A37367100
0080702677008000
0072604378017000
00582042A4025000
0046A98138355000
0004510001530000
ENDCHAR
STARTCHAR wacute
ENCODING 7811
SWIDTH 735 0
DWIDTH 15 0
BBX 15 20 0 -1
BITMAP
0000000023000000
0000000085400000
0000000624500000
0000003635000000
0000002880000000
1672000000077500
9218005770260460
8007036061340530
6108068043620700
44255BB017B62700
3A42777857813800
0700772506702600
0710840703605200
043187687B516100
02A6800A37367100
0080702677008000
0072604378017000
00582042A4025000
0046A98138355000
0004510001530000
ENDCHAR
STARTCHAR Wdieresis
ENCODING 7812
SWIDTH 735 0
DWIDTH 15 0
BBX 15 19 0 -1
BITMAP
0000010000000000
0001869486700000
0000706340700000
0000768187400000
1672000000077500
9218005770260460
8007036061340530
6108068043620700
44255BB017B62700
3A42777857813800
0700772506702600
0710840703605200
043187687B516100
02A6800A37367100
0080702677008000
0072604378017000
00582042A4025000
0046A98138355000
0004510001530000
ENDCHAR
STARTCHAR wdieresis
ENCODING 7813
SWIDTH 735 0
DWIDTH 15 0
BBX 15 19 0 -1
BITMAP
0000010000000000
0001869486700000
0000706340700000
0000768187400000
1672000000077500
9218005770260460
8007036061340530
6108068043620700
44255BB017B62700
3A42777857813800
0700772506702600
0710840703605200
043187687B516100
02A6800A37367100
0080702677008000
0072604378017000
00582042A4025000
0046A98138355000
0004510001530000
ENDCHAR
STARTCHAR Ygrave
ENCODING 7922
SWIDTH 484 0
DWIDTH 10 0
BBX 12 19 -1 0
BITMAP
000046000000
000656100000
000442500000
000070700000
000028700000
017400028710
181810061191
630270070081
072036440440
008266B82700
005903503700
000727107100
000087007000
000077643000
000080181000
000440350000
001800800000
001900700000
000288400000
ENDCHAR
STARTCHAR ygrave
ENCODING 7923
SWIDTH 484 0
DWIDTH 10 0
BBX 12 19 -1 0
BITMAP
000046000000
000656100000
000442500000
000070700000
000028700000
017400028710
181810061191
630270070081
072036440440
008266B82700
005903503700
000727107100
000087007000
000077643000
000080181000
000440350000
001800800000
001900700000
000288400000
ENDCHAR
STARTCHAR endash
ENCODING 8211
SWIDTH 591 0
DWIDTH 12 0
BBX 12 5 0 4
BITMAP
176574473240
611273374562
600060060034
287787777781
000000000010
ENDCHAR
STARTCHAR emdash
ENCODING 8212
SWIDTH 726 0
DWIDTH 15 0
BBX 14 5 0 4
BITMAP
07533532352022
52244845485658
70000600060007
28777877777768
00000000000011
ENDCHAR
STARTCHAR quoteleft
ENCODING 8216
SWIDTH 291 0
DWIDTH 6 0
BBX 6 9 0 6
BITMAP
004760
007028
017026
097170
071480
440440
800700
742800
046200
ENDCHAR
STARTCHAR quoteright
ENCODING 8217
SWIDTH 291 0
DWIDTH 6 0
BBX 6 9 0 6
BITMAP
004760
007028
017026
097170
071480
440440
800700
742800
046200
ENDCHAR
STARTCHAR quotesinglbase
ENCODING 8218
SWIDTH 228 0
DWIDTH 5 0
BBX 6 6 -1 -3
BITMAP
004830
007081
071072
620530
431700
067100
ENDCHAR
STARTCHAR quotedblleft
ENCODING 8220
SWIDTH 532 0
DWIDTH 11 0
BBX 11 9 0 6
BITMAP
004760068500
007028070460
017026350540
097170B61700
071481614700
440447106100
800717007000
742809327000
046200561000
ENDCHAR
STARTCHAR quotedblright
ENCODING 8221
SWIDTH 532 0
DWIDTH 11 0
BBX 11 9 0 6
BITMAP
004760068500
007028070460
017026350540
097170B61700
071481614700
440447106100
800717007000
742809327000
046200551000
ENDCHAR
STARTCHAR quotedblbase
ENCODING 8222
SWIDTH 448 0
DWIDTH 9 0
BBX 10 6 -1 -3
BITMAP
0048301860
0070816145
0710765027
6205570170
4317070710
0671027400
ENDCHAR
STARTCHAR dagger
ENCODING 8224
SWIDTH 453 0
DWIDTH 9 0
BBX 9 17 0 -1
BITMAP
0001310000
0019585000
0017016000
0308044100
5678049750
7028334070
6268448270
0766045610
0017052000
0016043000
0039545000
0036255000
0016052000
0026061000
0044053000
0071036000
0028881000
ENDCHAR
STARTCHAR daggerdbl
ENCODING 8225
SWIDTH 462 0
DWIDTH 9 0
BBX 9 17 0 -1
BITMAP
0000320000
000A576000
0007008000
0207025100
377903A760
7019426070
5349449270
0757037610
0008044000
0007034000
044A637300
456723A570
7007044070
4547048470
0555035410
0063017000
0018892000
ENDCHAR
STARTCHAR bullet
ENCODING 8226
SWIDTH 275 0
DWIDTH 6 0
BBX 4 4 1 5
BITMAP
6772
6043
8372
0420
ENDCHAR
STARTCHAR ellipsis
ENCODING 8230
SWIDTH 605 0
DWIDTH 12 0
BBX 12 4 0 -1
BITMAP
477447754775
610651075207
644655464537
033003300330
ENDCHAR
STARTCHAR perthousand
ENCODING 8240
SWIDTH 1249 0
DWIDTH 25 0
BBX 25 14 0 0
BITMAP
06655600043000000000000000
38610570343600000000000000
50466760411500000000000000
41505050605100000000000000
50505050926000000000000000
55658052537000000000000000
67006273306565561036556200
05556A26034863019286400930
00000009453408575350856450
00000006181524324150505150
00000015071424324150505140
00000051152666813267664050
00000070253A005344A3035350
00000015610365596026558800
ENDCHAR
STARTCHAR guilsinglleft
ENCODING 8249
SWIDTH 359 0
DWIDTH 7 0
BBX 7 10 0 2
BITMAP
00005300
00073640
03720070
64004820
62065000
78866000
37102720
00730170
00065920
00004100
ENDCHAR
STARTCHAR guilsinglright
ENCODING 8250
SWIDTH 359 0
DWIDTH 7 0
BBX 7 10 0 2
BITMAP
02600000
28281000
52017500
17500370
00370180
00568880
17300650
44028100
09470000
00400000
ENDCHAR
STARTCHAR fraction
ENCODING 8260
SWIDTH 266 0
DWIDTH 5 0
BBX 6 14 0 0
BITMAP
001420
006153
006051
006060
047160
062360
060420
060600
192600
333700
512400
605100
706000
264000
ENDCHAR
STARTCHAR Euro
ENCODING 8364
SWIDTH 690 0
DWIDTH 14 0
BBX 14 16 0 -1
BITMAP
00000200000000
00005677896550
00007000251280
00007110320070
0033786B777780
0173C747000000
03407008000000
00868016000000
28777034000000
70049756000000
71044062000110
176A1086977780
00080081610061
00077690421380
00009377786540
00002610000000
ENDCHAR
STARTCHAR partialdiff
ENCODING 8706
SWIDTH 519 0
DWIDTH 10 0
BBX 12 15 -1 -1
BITMAP
000005885000
000018008000
000008008000
000005307200
000003578700
000008700800
000581800800
005B00610710
285263B47950
441887360270
099138580080
018000290071
005750061045
000028379770
000000550000
ENDCHAR
STARTCHAR minus
ENCODING 8722
SWIDTH 467 0
DWIDTH 9 0
BBX 9 5 0 4
BITMAP
0654642510
5323475380
7100240070
3767777670
0310110100
ENDCHAR
STARTCHAR fi
ENCODING 64257
SWIDTH 741 0
DWIDTH 15 0
BBX 15 15 0 -1
BITMAP
08788A7784587810
0800752007620710
0802531107530800
0802A77773620700
2B73700000976700
1602A67400800700
0803410700610700
0703400700710700
1B73B78600976800
1702600000701800
0704400000700700
1704400000800700
4301600000800800
2878400000677700
0010000000000000
ENDCHAR
STARTCHAR fl
ENCODING 64258
SWIDTH 942 0
DWIDTH 19 0
BBX 20 15 0 -1
BITMAP
08788A77845878100000
08007520076207100000
08025311075308000000
0802A777736207000000
2B737000009767000000
1602A674008007000000
08034107006107000000
07034007007107000000
1B73B786009768000000
17026000007017000000
07044000007009A76670
17044000008007701052
43016000008008600053
28784000006779887790
00100000000000000000
ENDCHAR
STARTCHAR .notdef
ENCODING -1
SWIDTH 200 0
DWIDTH 4 0
BBX 1 1 0 0
BITMAP
00
ENDCHAR
STARTCHAR .null
ENCODING -1
SWIDTH 0 0
DWIDTH 0 0
BBX 1 1 0 0
BITMAP
00
ENDCHAR
STARTCHAR nonmarkingreturn
ENCODING -1
SWIDTH 200 0
DWIDTH 4 0
BBX 1 1 0 0
BITMAP
00
ENDCHAR
ENDFONT
